<?xml version="1.0" encoding="UTF-8"?> <svg xmlns="http://www.w3.org/2000/svg" xmlns:xlink="http://www.w3.org/1999/xlink" version="1.1" id="Layer_1" x="0px" y="0px" viewBox="0 0 389 108" style="enable-background:new 0 0 389 108;" xml:space="preserve" width="100%" height="100%"> <style type="text/css"> .st0{display:none;} .st1{display:inline;fill:#4E4E4E;} .st2{display:inline;fill-rule:evenodd;clip-rule:evenodd;fill:#4E4E4E;} .st3{display:inline;fill:#005bbd;} .st4{display:inline;fill:#007bff;} .st5{fill:#4E4E4E;} .st6{fill-rule:evenodd;clip-rule:evenodd;fill:#4E4E4E;} .st7{opacity:0.7;} .st8{fill:#005bbd;} .st9{fill:#007bff;} .st10{display:none;fill:#005bbd;} .st11{display:none;fill:#007bff;} .st12{display:inline;fill:#ED8D1A;} .st13{display:inline;fill:#F39C12;} </style> <g class="st0"> <polygon class="st1" points="120.4,158.5 120.4,156.6 129.3,156.6 129.3,158.7 123.5,162.5 129.3,162.5 129.3,164.4 120.4,164.4 120.4,162.3 126.1,158.5 "></polygon> <polygon class="st1" points="126.4,151.3 129.3,151.3 129.3,153.1 126.5,153.1 120.4,156 120.4,154 124.7,152.2 120.4,150.4 120.4,148.5 "></polygon> <path class="st1" d="M129.3,131.4c0,0.6-0.1,1.2-0.4,1.7c-0.2,0.5-0.6,1-1,1.4c-0.4,0.4-0.9,0.7-1.4,1c-0.5,0.2-1.1,0.3-1.7,0.3 c-0.6,0-1.2-0.1-1.7-0.3c-0.5-0.2-1-0.6-1.4-1c-0.4-0.4-0.7-0.9-1-1.4c-0.2-0.5-0.4-1.1-0.4-1.7s0.1-1.2,0.4-1.7 c0.2-0.5,0.6-1,1-1.4c0.4-0.4,0.9-0.7,1.4-1c0.5-0.2,1.1-0.4,1.7-0.4c0.6,0,1.2,0.1,1.7,0.4c0.5,0.2,1,0.6,1.4,1 c0.4,0.4,0.7,0.9,1,1.4C129.1,130.2,129.3,130.8,129.3,131.4 M122.2,131.4c0,0.4,0.1,0.7,0.2,1c0.1,0.3,0.3,0.6,0.6,0.8 c0.2,0.2,0.5,0.4,0.8,0.6c0.3,0.1,0.7,0.2,1,0.2c0.4,0,0.7-0.1,1-0.2c0.3-0.1,0.6-0.3,0.8-0.6c0.2-0.2,0.4-0.5,0.6-0.8 c0.1-0.3,0.2-0.7,0.2-1c0-0.4-0.1-0.7-0.2-1c-0.1-0.3-0.3-0.6-0.6-0.8c-0.2-0.2-0.5-0.4-0.8-0.6c-0.3-0.1-0.7-0.2-1-0.2 c-0.4,0-0.7,0.1-1,0.2c-0.3,0.1-0.6,0.3-0.8,0.6c-0.2,0.2-0.4,0.5-0.6,0.8C122.3,130.7,122.2,131,122.2,131.4"></path> <path class="st1" d="M127.2,118.3c0.3,0.2,0.6,0.4,0.9,0.7c0.3,0.3,0.5,0.6,0.7,0.9c0.2,0.3,0.3,0.7,0.4,1c0.1,0.4,0.2,0.8,0.2,1.2 c0,0.6-0.1,1.2-0.4,1.7c-0.2,0.5-0.6,1-1,1.4c-0.4,0.4-0.9,0.7-1.4,1c-0.5,0.2-1.1,0.4-1.7,0.4c-0.6,0-1.2-0.1-1.7-0.4 c-0.5-0.2-1-0.6-1.4-1c-0.4-0.4-0.7-0.9-1-1.4c-0.2-0.5-0.4-1.1-0.4-1.7c0-0.4,0.1-0.8,0.2-1.2c0.1-0.4,0.2-0.7,0.4-1 c0.2-0.3,0.4-0.6,0.7-0.9c0.3-0.3,0.6-0.5,0.9-0.7l1.4,1.4c-0.2,0.1-0.5,0.2-0.7,0.4c-0.2,0.2-0.4,0.3-0.5,0.6 c-0.1,0.2-0.3,0.4-0.3,0.7c-0.1,0.3-0.1,0.5-0.1,0.8c0,0.4,0.1,0.7,0.2,1c0.1,0.3,0.3,0.6,0.6,0.8c0.2,0.2,0.5,0.4,0.8,0.6 c0.3,0.1,0.7,0.2,1,0.2c0.4,0,0.7-0.1,1-0.2c0.3-0.1,0.6-0.3,0.8-0.6c0.2-0.2,0.4-0.5,0.6-0.8c0.1-0.3,0.2-0.7,0.2-1 c0-0.3,0-0.5-0.1-0.8c-0.1-0.2-0.2-0.5-0.3-0.7c-0.1-0.2-0.3-0.4-0.5-0.6c-0.2-0.2-0.4-0.3-0.7-0.4L127.2,118.3z"></path> <rect x="120.4" y="145.9" class="st2" width="8.9" height="1.8"></rect> <path class="st1" d="M123.1,136.7c-0.5,0.2-1,0.6-1.4,1c-0.4,0.4-0.7,0.9-1,1.4c-0.2,0.5-0.4,1.1-0.4,1.7c0,0.6,0.1,1.2,0.4,1.7 c0.2,0.5,0.6,1,1,1.4c0.4,0.4,0.9,0.7,1.4,1c0.5,0.2,1.1,0.4,1.7,0.4c0.6,0,1.2-0.1,1.7-0.4c0.5-0.2,1-0.6,1.4-1 c0.4-0.4,0.7-0.9,1-1.4c0.2-0.5,0.4-1.1,0.4-1.7c0-0.6-0.1-1.2-0.4-1.7c-0.2-0.5-0.6-1-1-1.4c-0.4-0.4-0.9-0.7-1.4-1 c-0.5-0.2-1.1-0.4-1.7-0.4C124.2,136.4,123.6,136.5,123.1,136.7 M125.8,138.4c0.3,0.1,0.6,0.3,0.8,0.6c0.2,0.2,0.4,0.5,0.6,0.8 c0.1,0.3,0.2,0.7,0.2,1c0,0.4-0.1,0.7-0.2,1c-0.1,0.3-0.3,0.6-0.6,0.8c-0.2,0.2-0.5,0.4-0.8,0.6c-0.3,0.1-0.7,0.2-1,0.2 c-0.4,0-0.7-0.1-1-0.2c-0.3-0.1-0.6-0.3-0.8-0.6c-0.2-0.2-0.4-0.5-0.6-0.8c-0.1-0.3-0.2-0.7-0.2-1c0-0.4,0.1-0.7,0.2-1 c0.1-0.3,0.3-0.6,0.6-0.8c0.2-0.2,0.5-0.4,0.8-0.6c0.3-0.1,0.7-0.2,1-0.2C125.2,138.2,125.5,138.3,125.8,138.4"></path> </g> <g class="st0"> <path class="st3" d="M106.1,141.4c0,5.6,4.6,10.2,10.2,10.2v8.7c-2.9,0-5.2,1.8-6.8,4.5c-1.6-0.5-3.2-1.1-4.7-1.9 c0.8-3-0.4-5.5-2.5-7.6c-2.1-2.1-4.5-2.7-7.6-1.9c-0.8-1.5-1.4-3-1.9-4.7c2.7-1.6,4.5-4.5,4.5-7.4c0-2.9-1.8-5.8-4.5-7.4 c0.5-1.6,1.1-3.2,1.9-4.7c3,0.8,5.5,0.2,7.6-1.9c2.1-2.1,3.3-4.5,2.5-7.6c1.5-0.8,3-1.4,4.7-1.9c1.6,2.7,3.9,4.5,6.8,4.5v8.7 C110.7,131.2,106.1,135.7,106.1,141.4z"></path> <path class="st4" d="M106.1,141.4c0,5.6,4.6,10.2,10.2,10.2v8.7c-2.9,0-5.2,1.8-6.8,4.5c-1.6-0.5-3.2-1.1-4.7-1.9 c1.9-2.3,4-6,0.6-9.4c-3.8-3.8-8.3-1.5-10.6-0.1c-0.8-1.5-1.4-3-1.9-4.7c3.2-0.4,6.9-2.1,6.9-7.5c0-5.1-3.9-7.2-6.9-7.2 c0.5-1.6,1.1-3.2,1.9-4.7c3.6,1.5,7.2,2.9,10.2-0.5c2.6-2.9,1.2-6.4-0.2-9c1.5-0.8,3-1.4,4.7-1.9c1.6,2.7,3.9,4.5,6.8,4.5v8.7 C110.7,131.2,106.1,135.7,106.1,141.4z"></path> <rect x="115.1" y="115.3" class="st4" width="2.4" height="52"></rect> </g> <g> <g> <polygon class="st5" points="77.1,22.7 81,22.7 81,41.1 76.7,41.1 68.8,29.1 68.8,41.1 64.9,41.1 64.9,22.6 69.2,22.6 77.1,34.6 "></polygon> <polygon class="st5" points="92,35.2 92,41 88.2,41 88.2,35.3 82.3,22.7 86.4,22.7 90.1,31.6 93.8,22.7 97.9,22.7 "></polygon> <path class="st5" d="M133.2,41c-1.3,0-2.5-0.2-3.6-0.7c-1.1-0.5-2.1-1.1-2.9-2c-0.8-0.8-1.5-1.8-2-2.9c-0.5-1.1-0.7-2.3-0.7-3.6 c0-1.3,0.2-2.5,0.7-3.6c0.5-1.1,1.1-2.1,2-2.9c0.8-0.8,1.8-1.5,2.9-2c1.1-0.5,2.3-0.7,3.6-0.7c1.3,0,2.5,0.2,3.6,0.7 c1.1,0.5,2.1,1.1,2.9,2c0.8,0.8,1.5,1.8,2,2.9c0.5,1.1,0.7,2.3,0.7,3.6c0,1.3-0.2,2.5-0.7,3.6c-0.5,1.1-1.1,2.1-2,2.9 c-0.8,0.8-1.8,1.5-2.9,2C135.7,40.8,134.5,41,133.2,41 M133.2,26.4c-0.8,0-1.5,0.1-2.1,0.4c-0.7,0.3-1.2,0.7-1.7,1.2 c-0.5,0.5-0.9,1.1-1.2,1.7c-0.3,0.7-0.4,1.4-0.4,2.1c0,0.8,0.1,1.5,0.4,2.1c0.3,0.7,0.7,1.2,1.2,1.7c0.5,0.5,1.1,0.9,1.7,1.2 c0.7,0.3,1.4,0.4,2.1,0.4c0.7,0,1.4-0.1,2.1-0.4c0.7-0.3,1.2-0.7,1.7-1.2c0.5-0.5,0.9-1.1,1.2-1.7c0.3-0.7,0.4-1.4,0.4-2.1 c0-0.8-0.1-1.5-0.4-2.1c-0.3-0.7-0.7-1.2-1.2-1.7c-0.5-0.5-1.1-0.9-1.7-1.2C134.6,26.6,133.9,26.4,133.2,26.4"></path> <path class="st5" d="M160.4,36.7c-0.4,0.7-0.9,1.2-1.4,1.8c-0.6,0.5-1.2,1-1.8,1.4c-0.7,0.4-1.4,0.7-2.2,0.9 c-0.8,0.2-1.6,0.3-2.4,0.3c-1.3,0-2.5-0.2-3.6-0.7c-1.1-0.5-2.1-1.1-2.9-2c-0.8-0.8-1.5-1.8-2-2.9c-0.5-1.1-0.7-2.3-0.7-3.6 c0-1.3,0.2-2.5,0.7-3.6c0.5-1.1,1.1-2.1,2-2.9c0.8-0.8,1.8-1.5,2.9-2c1.1-0.5,2.3-0.7,3.6-0.7c0.8,0,1.6,0.1,2.4,0.3 c0.8,0.2,1.5,0.5,2.2,0.9c0.7,0.4,1.3,0.9,1.8,1.4c0.6,0.5,1,1.1,1.4,1.8l-2.8,2.8c-0.2-0.5-0.5-1-0.8-1.4 c-0.3-0.4-0.7-0.8-1.1-1.1c-0.4-0.3-0.9-0.5-1.4-0.7c-0.5-0.2-1.1-0.3-1.6-0.3c-0.7,0-1.4,0.1-2.1,0.4c-0.7,0.3-1.2,0.7-1.7,1.2 c-0.5,0.5-0.9,1.1-1.2,1.7c-0.3,0.7-0.4,1.4-0.4,2.1c0,0.8,0.1,1.5,0.4,2.1c0.3,0.7,0.7,1.2,1.2,1.7c0.5,0.5,1.1,0.9,1.7,1.2 c0.7,0.3,1.4,0.4,2.1,0.4c0.6,0,1.1-0.1,1.6-0.2c0.5-0.2,1-0.4,1.4-0.7c0.4-0.3,0.8-0.7,1.1-1.1c0.3-0.4,0.6-0.9,0.8-1.4 L160.4,36.7z"></path> <rect x="99.4" y="22.7" class="st6" width="3.8" height="18.4"></rect> <path class="st5" d="M122.1,28.3c-0.5-1.1-1.1-2.1-2-2.9c-0.8-0.8-1.8-1.5-2.9-2c-1.1-0.5-2.3-0.7-3.6-0.7c-1.3,0-2.5,0.2-3.6,0.7 c-1.1,0.5-2.1,1.1-2.9,2c-0.8,0.8-1.5,1.8-2,2.9c-0.5,1.1-0.7,2.3-0.7,3.6c0,1.3,0.2,2.5,0.7,3.6c0.5,1.1,1.1,2.1,2,2.9 c0.8,0.8,1.8,1.5,2.9,2c1.1,0.5,2.3,0.7,3.6,0.7c1.3,0,2.5-0.2,3.6-0.7c1.1-0.5,2.1-1.1,2.9-2c0.8-0.8,1.5-1.8,2-2.9 c0.5-1.1,0.7-2.3,0.7-3.6C122.9,30.6,122.6,29.4,122.1,28.3 M118.6,33.9c-0.3,0.7-0.7,1.2-1.2,1.7c-0.5,0.5-1.1,0.9-1.7,1.2 c-0.7,0.3-1.3,0.4-2.1,0.4c-0.8,0-1.5-0.1-2.1-0.4c-0.7-0.3-1.2-0.7-1.7-1.2c-0.5-0.5-0.9-1.1-1.2-1.7c-0.3-0.7-0.4-1.4-0.4-2.1 c0-0.8,0.1-1.5,0.4-2.1c0.3-0.7,0.7-1.2,1.2-1.7c0.5-0.5,1.1-0.9,1.7-1.2c0.7-0.3,1.4-0.4,2.1-0.4c0.7,0,1.4,0.1,2.1,0.4 c0.7,0.3,1.2,0.7,1.7,1.2c0.5,0.5,0.9,1.1,1.2,1.7c0.3,0.7,0.4,1.4,0.4,2.1C119.1,32.6,118.9,33.3,118.6,33.9"></path> </g> <g class="st7"> <path class="st5" d="M64.9,90.6V46.6h10.7c10,0,14.7,7.3,14.7,15.8c0,8.3-4.5,15.9-14.8,15.9h-4.8v12.2H64.9z M75.6,72.8 c6.1,0,8.9-4.4,8.9-10.3c0-6-2.8-10.3-8.9-10.3h-4.9v20.6H75.6z"></path> <path class="st5" d="M92.6,90.6V61.6c0-2.2-0.4-4.3-0.8-5.3H97c0,0,0.9,2.5,1.1,5.6h0.1c1.9-4.1,5.1-6.2,9.6-6.2 c0.4,0,0.8,0.1,1.2,0.1l-0.9,6.7c-0.4-0.2-1.3-0.4-2.3-0.4c-4.6,0-7.4,3.5-7.4,8.6v19.8H92.6z"></path> <path class="st5" d="M108.6,73.4c0-10.9,4.2-17.7,12.8-17.7c8.6,0,12.8,6.8,12.8,17.7c0,11-4.2,17.8-12.8,17.8 C112.8,91.2,108.6,84.4,108.6,73.4z M128.3,73.4c0-7-1.8-12.5-6.9-12.5s-7,5.5-7,12.5c0,6.8,1.9,12.5,7,12.5 S128.3,80.6,128.3,73.4z"></path> <path class="st5" d="M155.8,90.6c-0.3-0.7-0.8-2.3-0.9-4.1h-0.1c-1.4,2.6-4,4.7-8,4.7c-7.1,0-11-7-11-17.8 c0-10.8,4.2-17.7,11.6-17.7c3.1,0,5.5,1.6,7,3.8h0.1c0,0-0.1-2.1-0.1-4V44.8h5.8v40.5c0,2.3,0.5,4.4,0.8,5.3H155.8z M154.4,71.1 c0-4.6-0.9-10.1-6.2-10.1c-5.1,0-6.7,5.6-6.7,12.5c0,7,1.5,12.4,6.7,12.4c4.1,0,6.2-3.5,6.2-8V71.1z"></path> <path class="st5" d="M184.8,90.6c0,0-0.8-2.1-0.9-4.7h-0.1c-1.8,3.5-4.9,5.3-8.7,5.3c-7.7,0-10.2-6.3-10.2-13.5V56.4h5.8v19.1 c0,5.8,0.7,10.6,6,10.6c4.8,0,6.8-4.5,6.8-8.5V56.4h5.8v29c0,2.2,0.4,4.3,0.8,5.2H184.8z"></path> <path class="st5" d="M216.4,83.3c-1.9,4.9-5.3,7.9-11.1,7.9c-8.2,0-12.7-6.6-12.7-17.6c0-11,4.6-17.8,12.7-17.8 c5.7,0,9.1,3,11.1,7.8l-4.8,3.5c-0.8-3.6-2.8-5.8-6.1-5.8c-5.3,0-7,5.3-7,12.4c0,6.9,1.6,12.2,7,12.2c3.3,0,5.2-2.4,6.3-5.9 L216.4,83.3z"></path> <path class="st5" d="M242,83.5c-2.5,5-6,7.7-12,7.7c-8.2,0-12.7-6.6-12.7-17.6S222,55.7,230,55.7c9.7,0,12.2,8.2,12.2,18.1v1.6 H223c0.3,6.3,2.4,10.7,7.5,10.7c3.5,0,5.6-1.9,7.1-5.8L242,83.5z M236.6,71c-0.2-6.2-1.9-10.4-6.4-10.4c-4.6,0-6.8,4.3-7.2,10.4 H236.6z"></path> <path class="st5" d="M245.5,90.6V61.6c0-2.2-0.4-4.3-0.8-5.3h5.2c0,0,0.9,2.5,1.1,5.6h0.1c1.9-4.1,5.1-6.2,9.6-6.2 c0.4,0,0.8,0.1,1.2,0.1l-0.9,6.7c-0.4-0.2-1.3-0.4-2.3-0.4c-4.6,0-7.4,3.5-7.4,8.6v19.8H245.5z"></path> <path class="st5" d="M281.8,90.6V52.2h-9.1v-5.6h24v5.6h-9v38.3H281.8z"></path> <path class="st5" d="M297.1,73.4c0-10.9,4.2-17.7,12.8-17.7c8.6,0,12.8,6.8,12.8,17.7c0,11-4.2,17.8-12.8,17.8 C301.3,91.2,297.1,84.4,297.1,73.4z M316.8,73.4c0-7-1.8-12.5-6.9-12.5c-5.1,0-7,5.5-7,12.5c0,6.8,1.9,12.5,7,12.5 C315,85.9,316.8,80.6,316.8,73.4z"></path> <path class="st5" d="M324.3,73.4c0-10.9,4.2-17.7,12.8-17.7c8.6,0,12.8,6.8,12.8,17.7c0,11-4.2,17.8-12.8,17.8 C328.5,91.2,324.3,84.4,324.3,73.4z M344,73.4c0-7-1.8-12.5-6.9-12.5c-5.1,0-7,5.5-7,12.5c0,6.8,1.9,12.5,7,12.5 C342.2,85.9,344,80.6,344,73.4z"></path> <path class="st5" d="M353.1,90.6V44.8h5.8v45.8H353.1z"></path> <path class="st5" d="M366,81.2c1.6,2.9,5.2,4.8,8.7,4.8c3.6,0,5.7-2,5.7-4.7c0-7.5-17.6-5-17.6-15.8c0-5.1,3.9-9.7,11.5-9.7 c4.2,0,8.1,1.4,11,5l-4,3.6c-1.8-2.5-4.1-3.7-7.4-3.7c-2.9,0-5.5,1.6-5.5,4.4c0,6.5,17.6,3.8,17.6,15.9c0,6-4.3,10.2-11.4,10.2 c-5.6,0-10.3-2.3-13.1-6.2L366,81.2z"></path> </g> <g> <path class="st8" d="M27.5,54.1c0,11.7,9.5,21.1,21.1,21.1v18.1c-6.1,0-10.8,3.7-14.1,9.3c-3.4-1-6.6-2.4-9.7-4 c1.6-6.3-0.8-11.4-5.1-15.7c-4.3-4.3-9.4-5.6-15.7-4c-1.7-3-3-6.3-4-9.7c5.6-3.3,9.3-9.2,9.3-15.3c0-6.1-3.7-12-9.3-15.3 c1-3.4,2.4-6.6,4-9.7c6.3,1.7,11.4,0.3,15.7-4c4.3-4.3,6.8-9.4,5.1-15.7c3.1-1.6,6.3-3,9.7-4c3.3,5.6,8.1,9.3,14.1,9.3v18.1 C36.9,32.9,27.5,42.4,27.5,54.1z"></path> <path class="st9" d="M46.1,0.2l0,14.4c-4.9-0.9-8.8-4.3-11.6-9.1c-3.4,1-6.6,2.4-9.7,4c3,5.5,5.7,12.7,0.4,18.7 c-6.2,6.9-13.7,4-21.2,1c-1.6,3.1-3,6.3-4,9.7c6.3,0,14.4,4.5,14.4,15c0,11.1-7.8,14.8-14.4,15.6C1,72.8,2.4,76,4,79 c4.7-3,14-7.8,21.9,0.1c7.1,7.1,2.8,14.8-1.1,19.5c3.1,1.7,6.3,3,9.7,4c2.8-4.8,6.8-8.3,11.6-9.1l0,14.3h5l0-107.6H46.1z M27.5,54.1c0-10.8,8.2-19.7,18.7-21l0,42C35.6,73.8,27.5,64.9,27.5,54.1z"></path> </g> </g> <rect x="112" y="-62.7" class="st10" width="15.7" height="20.7"></rect> <rect x="138.7" y="-62.7" class="st11" width="15.7" height="20.7"></rect> <g class="st0"> <rect x="112" y="-36" class="st12" width="15.7" height="20.7"></rect> <rect x="138.7" y="-36" class="st13" width="15.7" height="20.7"></rect> </g> </svg> 