<svg version="1.1" id="Layer_1" xmlns="http://www.w3.org/2000/svg" xmlns:xlink="http://www.w3.org/1999/xlink" x="0px" y="0px" viewBox="0 0 5400 1006" style="enable-background:new 0 0 5400 1006;" xml:space="preserve">
<style type="text/css">
	.st0{fill:#b3b3b3;}
	.st1{fill:#4F7DF3;}
</style>
<g>
	<polygon class="st0" points="212.1,996.8 212.1,355.6 639.7,996.8 875.7,996.8 875.7,8.7 663.6,8.7 663.6,654.9 232.6,8.7 0,8.7 
		0,996.8"></polygon>
	<polygon class="st0" points="1546.9,8.5 1349.1,491.6 1150.7,8.7 924.9,8.7 1239.6,688.9 1239.6,996.8 1444.8,996.8 1444.8,688.9 
		1766.4,8.7 1610.2,8.4"></polygon>
</g>
<g>
	<polygon class="st1" points="3028.7,8.7 2809,8.7 2589.3,689 2355.4,15.7 2355.4,8.7 2227.8,8.7 1994,689 1774.3,15.7 1774.3,8.4 
		1546.9,8.5 1552.9,23.5 1908.9,993.7 2079,993.7 2199.5,689 2291.6,405.5 2383.8,689 2511.3,993.7 2674.3,993.7 3028.7,22.8"></polygon>
	<path class="st1" d="M3304.2,270.9c-212.6,0-361.4,155.9-361.4,361.4c0,212.6,148.8,361.4,361.4,361.4
		c212.6,0,361.4-148.8,361.4-361.4S3509.7,270.9,3304.2,270.9z M3481.4,632.3c0,92.1-56.7,191.3-177.2,191.3
		c-120.5,0-177.2-99.2-177.2-191.3S3183.8,441,3304.2,441C3410.5,441,3481.4,540.2,3481.4,632.3z"></path>
	<path class="st1" d="M4132.3,270.9c-63.8,0-134.7,7.1-184.3,85l-7.1-63.8h-170.1v701.6h184.3V625.2c0-148.8,113.4-163,163-163
		c56.7,0,85,14.2,113.4,42.5l7.1,7.1l85-163l-7.1-7.1C4274,299.2,4203.1,270.9,4132.3,270.9z"></path>
	<path class="st1" d="M4360.5,8.7h184.3v985.1h-184.3V8.7z"></path>
	<path class="st1" d="M5208.7-0.2v361.4c-49.6-56.7-141.7-92.1-212.6-92.1c-219.7,0-354.3,141.7-354.3,368.5
		c0,219.7,141.7,368.5,361.4,368.5c63.8,0,155.9-14.2,212.6-92.1l7.1,78H5400V6.9h-191.3V-0.2z M5201.6,637.7
		c0,127.6-92.1,191.3-191.3,191.3c-106.3,0-184.3-78-184.3-191.3s78-191.3,184.3-191.3C5116.5,446.3,5201.6,531.3,5201.6,637.7z"></path>
</g>
</svg>
