<svg xmlns="http://www.w3.org/2000/svg" width="313" viewBox="0 0 313 28" height="28" fill="none"><path fill="#fff" d="m46.2462 27.303h-13.2924v-.9952h.7128c.881 0 1.4-.4279 1.4-1.5226v-21.49409c0-1.09469-.519-1.52056-1.4-1.52056h-.7128v-1.004293h13.2924v9.121943h-.881v-.10099c0-5.40353-1.6049-7.85352-4.5454-7.85352h-2.1814v11.00901h.5557c1.6582 0 2.4354-1.6215 2.4354-5.04118v-.101h.8831v11.48228h-.8831v-.0685c0-3.3512-.7426-5.0836-2.4354-5.0836h-.5557v12.014h2.0478c2.9081 0 4.679-2.8921 4.679-7.8203v-.1038h.881zm-14.1395 0h-7.8016v-.9952h.6851c.8741 0 1.4298-.4279 1.4298-1.5226v-10.4215h-5.6895v10.4208c0 1.0989.5537 1.5226 1.4319 1.5226h.6852v.9951h-7.8017v-.9951h.6803c.881 0 1.4319-.4279 1.4319-1.5226v-21.49339c0-1.09469-.5509-1.52056-1.4319-1.52056h-.6803v-1.004293h7.8017v1.004993h-.6852c-.8789 0-1.4319.42587-1.4319 1.52056v9.65089h5.6895v-9.65159c0-1.09469-.5557-1.52056-1.4298-1.52056h-.6851v-1.004293h7.8016v1.004993h-.6803c-.8789 0-1.4298.42587-1.4298 1.52056v21.49339c0 1.0989.5509 1.5226 1.4298 1.5226h.6803zm-17.4878-17.34982h-.8761v-.09888c0-4.27141-1.589-7.92132-3.443-7.92132h-.78207v22.85362c0 1.0968.55577 1.5205 1.42977 1.5205h.8118v.9951h-8.02307v-.9951h.77718c.87616 0 1.42773-.4279 1.42773-1.5205v-22.85362h-.68237c-1.85404 0-3.44302 3.41967-3.44302 7.92132v.09888h-.878921v-9.187629h13.682071zm98.3501 17.34982h-12.905v-.9952h.715c.881 0 1.43-.3976 1.43-1.4894v-21.56261c0-1.08974-.549-1.48524-1.43-1.48524h-.715v-1.004293h7.804v1.004993h-.688c-.876 0-1.429.3955-1.429 1.48525v22.8889h1.923c3.498 0 4.414-4.0807 4.414-7.8556v-.101h.881zm-36.8927-25.53316h-.2609c-1.252 0-1.8935.23094-2.3385 2.41467l-4.7434 23.31549h-1.4665l-2.9586-15.2522h-.0325l-3.0209 15.2522h-1.4644l-4.6493-23.91368c-.2955-1.52056-.7239-1.81719-2.0457-1.81719h-.0969v-1.004286h7.0196v1.004996h-.1315c-1.0097 0-1.2637.29663-1.2637.99299 0 .15538.0277.46825.0644.65893l2.9585 16.19154h.0603l1.9184-10.65594-1.0035-5.37033c-.2492-1.32493-.5468-1.81719-1.5959-1.81719h-.1592v-1.004996h6.9518v1.004996h-.1267c-1.236 0-1.5592.44494-1.5613 1.35318 0 .24931.0367.52686.0948.83055l2.9614 15.45913h.0643l2.7953-15.49444c.0415-.226.0671-.53393.0671-.72956 0-.9605-.346-1.41886-1.7246-1.41886h-.1959v-1.004996h5.8853v1.004996zm23.5011 25.53316h-19.8304v-.9952h.1661c1.3446 0 1.7571-.3651 1.7571-1.125 0-.214-.0436-.4986-.0969-.8023l-.6249-3.5087h-4.4188l-.6132 3.5087c-.0574.3298-.099.5692-.099.8023 0 .8235.3156 1.125 1.6561 1.125h.1295v.9952h-5.558v-.9952h.2927c1.1392 0 1.7897-.2704 2.0804-1.8313l4.5171-23.9765h1.6602l4.6493 23.8798c.2769 1.4429 1.0056 1.9273 1.6236 1.9273h.5211c.8789 0 1.4298-.3976 1.4298-1.4894v-21.56191c0-1.08974-.5509-1.48524-1.4298-1.48524h-.6823v-1.004999h7.7995v1.004999h-.717c-.8761 0-1.4298.3955-1.4298 1.48524v22.88891h1.9184c3.5074 0 4.4189-4.0525 4.4189-7.886v-.101h.881v9.1453zm-18.8851-7.6579-1.9509-11.74358h-.0671l-1.9489 11.74358zm124.4947-9.69192h-.881v-.101c0-4.26929-1.584-7.91708-3.445-7.91708h-.779v22.8515c0 1.094.551 1.5248 1.429 1.5248h.72v.988h-7.903v-.988h.747c.881 0 1.432-.433 1.432-1.5248v-22.8515h-.682c-1.861 0-3.443 3.41967-3.443 7.91708v.101h-.881v-9.187629h13.687v9.187629zm-14.822 17.34622h-13.294v-.988h.716c.877 0 1.398-.433 1.398-1.5248v-21.49408c0-1.09398-.521-1.5248-1.398-1.5248h-.716v-1.002876h13.294v9.121946h-.876v-.09887c0-5.40565-1.612-7.85352-4.55-7.85352h-2.18v11.0069h.551c1.66 0 2.44-1.6335 2.44-5.0412v-.09887h.876v11.48227h-.876v-.0657c0-3.3561-.748-5.0836-2.44-5.0836h-.551v12.007h2.046c2.906 0 4.684-2.8879 4.684-7.8204v-.0967h.876zm-14.171 0h-13.295v-.988h.715c.879 0 1.4-.433 1.4-1.5248v-21.49408c0-1.09398-.521-1.5248-1.4-1.5248h-.715v-1.002876h13.295v9.121946h-.881v-.09887c0-5.40565-1.605-7.85352-4.553-7.85352h-2.177v11.0069h.554c1.656 0 2.442-1.6335 2.442-5.0412v-.09887h.876v11.48227h-.876v-.0657c0-3.3561-.754-5.0836-2.442-5.0836h-.554v12.007h2.048c2.908 0 4.682-2.8879 4.682-7.8204v-.0967h.881zm-29.937-17.34622h-.874v-.101c0-4.26929-1.589-7.91708-3.448-7.91708h-.775v22.8515c0 1.094.547 1.5248 1.425 1.5248h.682v.988h-7.864v-.988h.745c.881 0 1.432-.433 1.432-1.5248v-22.8515h-.682c-1.859 0-3.443 3.41967-3.443 7.91708v.101h-.879v-9.187629h13.68v9.187629zm-13.714 10.92002c0 4.6903-2.788 6.6247-6.046 6.6247-2.365 0-3.446-.7931-4.583-1.5884l-.613 1.3885h-.682v-9.1099h.876v.2683c0 6.3966 3.157 7.8536 4.743 7.8536 2.309 0 3.476-1.7346 3.476-4.2178 0-3.0404-1.875-5.2714-4.584-7.3542-2.449-1.8991-4.709-4.2241-4.709-8.0929 0-3.9988 2.41-6.078712 5.297-6.078712 2.403 0 3.519 1.004992 4.16 1.567172l.653-1.298797h.647v9.152317h-.876v-.26343c0-4.96354-1.464-7.95452-4.354-7.95452-1.757 0-2.799 1.31081-2.799 3.41685 0 2.49236 1.446 3.90628 4.132 6.02712 2.972 2.3554 5.262 4.8386 5.262 9.6601zm30.164 2.8088c0 2.2282-.831 3.8173-2.957 3.8173-2.138 0-3.037-1.6096-3.187-4.907l-.226-4.9396c-.123-2.6032-1.102-3.3229-2.569-3.3229h-.945v10.4561c0 1.0918.424 1.5248 1.3 1.5248h.844v.988h-7.861v-.988h.744c.879 0 1.43-.433 1.43-1.5248v-21.49409c0-1.09469-.551-1.52479-1.43-1.52479h-.744v-1.002882h7.114c4.303 0 6.988 2.254352 6.988 6.441012 0 4.38225-2.982 6.03425-5.623 6.56105v.0657c2.164.2303 4.135 1.8829 4.26 4.3915l.295 5.7891c.053 1.1625.192 1.5015.745 1.5015.647 0 .809-.4993.809-2.2289v-.9598h1.013zm-5.238-16.40834c0-4.15135-1.605-5.33997-3.801-5.33997h-.846v11.17361h.978c2.29.0007 3.669-1.5855 3.669-5.83364zm154.794 18.40284c0 1-.722 1.8214-1.494 1.8214-.765 0-1.49-.8214-1.49-1.8214 0-.9909.724-1.7932 1.49-1.7932.772 0 1.494.8023 1.494 1.7932zm-30.71-23.90807h-.696c-.809 0-1.462.62644-1.462 1.9203v23.71237h-1.271l-8.12-20.8909h-.064v17.8668c0 1.3016.648 1.9323 1.462 1.9323h.69v.9908h-5.468v-.9908h.687c.81 0 1.462-.6307 1.462-1.9323v-20.95453c0-.92731-.355-1.65475-1.273-1.65475h-.876v-1.002169h4.942l6.596 17.083549h.057v-14.16037c0-1.30586-.648-1.9203-1.453-1.9203h-.68v-1.002879h5.468v1.002879zm-59.199 0h-.71c-.883 0-1.432.42587-1.432 1.5248v18.50447c0 4.1535-2.555 5.7002-5.821 5.7002-2.331 0-4.679-1.9464-4.679-5.7002 0-2.0121 1.227-2.8808 2.212-2.8808 1.02 0 1.755.7345 1.755 1.9839 0 1.6004-.915 2.2755-2.11 2.45 0 1.3722 1.029 2.9585 2.789 2.9585 1.694 0 2.281-.9577 2.281-3.8152v-19.20087c0-1.09681-.517-1.5248-1.4-1.5248h-.812v-1.002879h7.928v1.002879zm85.401 25.53167h-19.879v-.9908h.199c1.342 0 1.755-.3652 1.755-1.1272 0-.214-.049-.4986-.099-.8051l-.616-3.5045h-4.414l-.616 3.5045c-.057.334-.097.572-.097.8051 0 .8214.312 1.1272 1.653 1.1272h.132v.9908h-5.565v-.9908h.293c1.151 0 1.798-.2734 2.091-1.8285l4.512-23.9808h1.653l4.652 23.8777c.278 1.4471 1.012 1.9323 1.637 1.9323h.519c.876 0 1.425-.3998 1.425-1.4895v-21.56259c0-1.09186-.549-1.48948-1.425-1.48948h-.71v-1.002879h7.843v1.002879h-.742c-.879 0-1.432.39762-1.432 1.48948v22.88189h1.916c3.507 0 4.423-4.0476 4.423-7.8507v-.101h.893v9.112zm-18.901-7.655-1.951-11.74358h-.062l-1.944 11.74358zm-22.361 4.0369c0 2.2282-.826 3.8173-2.955 3.8173-2.131 0-3.032-1.6096-3.187-4.907l-.225-4.9396c-.125-2.6145-1.098-3.3229-2.564-3.3229h-.946v10.4561c0 1.0918.425 1.5248 1.306 1.5248h.804v.988h-7.83v-.988h.75c.879 0 1.423-.433 1.423-1.5248v-21.49409c0-1.0848-.533-1.52479-1.391-1.52479h-1.369c-.81 0-1.298.69424-1.298 1.92029v17.67889c0 3.5256-1.149 6.1331-4.873 6.1331-3.964 0-6.273-2.4782-6.273-6.1331v-18.07439c0-1.09681-.519-1.52479-1.397-1.52479h-.722v-1.002882h7.838v1.002882h-.715c-.885 0-1.397.42798-1.397 1.52479v18.30679c0 2.9839 1.153 4.5751 3.122 4.5751 1.993 0 3.213-1.3179 3.213-4.5751v-17.91129c0-1.22605-.454-1.92029-1.269-1.92029h-.809v-1.002882h12.287c4.298 0 6.987 2.254352 6.987 6.441012 0 4.38225-2.991 6.03425-5.627 6.56105v.0657c2.164.2303 4.135 1.873 4.264 4.3915l.293 5.7891c.055 1.1625.194 1.5015.744 1.5015.648 0 .812-.4993.812-2.2289v-.9598h1.004zm-5.229-16.40834c0-4.15135-1.607-5.33997-3.801-5.33997h-.848v11.17361h.978c2.29.0007 3.671-1.5855 3.671-5.83364zm-25.45 6.69594c0 7.5407-2.423 13.5297-6.86 13.5297-4.326 0-6.757-5.989-6.757-13.5297 0-7.53779 2.327-13.402506 6.757-13.402506 4.383 0 6.86 5.864716 6.86 13.402506zm-4.029 6.3069v-12.54095c0-4.5864-1.001-5.96853-2.832-5.96853s-2.76 1.31362-2.76 6.03421v12.43777c0 4.4219.827 6.0717 2.76 6.0717 1.898 0 2.832-1.7579 2.832-6.0342z"></path></svg>