<svg viewBox="1.24 2.29 400.27 87.42" version="1.1" xmlns:xlink="http://www.w3.org/1999/xlink" xmlns="http://www.w3.org/2000/svg">
<g id="surface1">
<path d="M 1.238281 32.277344 C 1.238281 18.042969 4.539062 4.320312 19.503906 4.320312 C 34.46875 4.320312 37.765625 18.042969 37.765625 32.277344 C 37.765625 46.507812 34.46875 60.230469 19.503906 60.230469 C 4.539062 60.230469 1.238281 46.507812 1.238281 32.277344 Z M 24.828125 32.277344 C 24.828125 22.363281 24.070312 16.519531 19.503906 16.519531 C 14.9375 16.519531 14.175781 22.363281 14.175781 32.277344 C 14.175781 42.1875 14.9375 48.03125 19.503906 48.03125 C 24.070312 48.03125 24.828125 42.1875 24.828125 32.277344 Z M 24.828125 32.277344" style="stroke:none;fill-rule:nonzero;fill:rgb(100%,100%,100%);fill-opacity:1;"></path>
<path d="M 40.808594 58.960938 L 40.808594 2.289062 L 53.492188 2.289062 L 53.492188 58.960938 Z M 40.808594 58.960938" style="stroke:none;fill-rule:nonzero;fill:rgb(100%,100%,100%);fill-opacity:1;"></path>
<path d="M 56.789062 14.230469 L 69.726562 14.230469 L 69.726562 58.707031 L 56.789062 58.707031 Z M 56.789062 14.230469" style="stroke:none;fill-rule:nonzero;fill:rgb(100%,100%,100%);fill-opacity:1;"></path>
<path d="M 84.691406 58.960938 L 72.007812 14.484375 L 85.707031 14.484375 L 90.273438 40.917969 C 90.527344 42.949219 91.035156 44.984375 91.035156 44.984375 L 91.289062 44.984375 C 91.289062 44.984375 91.792969 42.695312 92.046875 40.917969 L 96.613281 14.230469 L 110.3125 14.230469 L 97.882812 58.707031 L 84.691406 58.707031 Z M 84.691406 58.960938" style="stroke:none;fill-rule:nonzero;fill:rgb(100%,100%,100%);fill-opacity:1;"></path>
<path d="M 119.949219 39.902344 C 120.203125 43.96875 121.726562 49.304688 126.800781 49.304688 C 129.84375 49.304688 131.363281 47.523438 133.394531 44.476562 L 141.765625 52.097656 C 137.960938 56.675781 133.140625 60.230469 125.785156 60.230469 C 113.609375 60.230469 107.519531 51.335938 107.519531 37.105469 C 107.519531 22.617188 113.609375 12.960938 125.785156 12.960938 C 140.496094 12.960938 141.765625 27.195312 141.765625 37.359375 L 141.765625 39.902344 Z M 130.097656 32.023438 C 130.097656 25.921875 128.574219 22.363281 125.277344 22.363281 C 121.980469 22.363281 120.457031 25.921875 119.949219 32.023438 Z M 130.097656 32.023438" style="stroke:none;fill-rule:nonzero;fill:rgb(100%,100%,100%);fill-opacity:1;"></path>
<path d="M 151.910156 32.277344 C 151.910156 18.042969 155.207031 4.320312 170.171875 4.320312 C 185.140625 4.320312 188.4375 18.042969 188.4375 32.277344 C 188.4375 46.507812 185.140625 60.230469 170.171875 60.230469 C 155.207031 60.230469 151.910156 46.507812 151.910156 32.277344 Z M 175.5 32.277344 C 175.5 22.363281 174.738281 16.519531 170.171875 16.519531 C 165.609375 16.519531 164.847656 22.363281 164.847656 32.277344 C 164.847656 42.1875 165.609375 48.03125 170.171875 48.03125 C 174.738281 48.03125 175.5 42.1875 175.5 32.277344 Z M 175.5 32.277344" style="stroke:none;fill-rule:nonzero;fill:rgb(100%,100%,100%);fill-opacity:1;"></path>
<path d="M 191.226562 14.230469 L 204.164062 14.230469 L 204.164062 58.707031 L 191.226562 58.707031 Z M 191.226562 14.230469" style="stroke:none;fill-rule:nonzero;fill:rgb(100%,100%,100%);fill-opacity:1;"></path>
<path d="M 206.953125 58.960938 L 206.953125 2.289062 L 219.890625 2.289062 L 219.890625 58.960938 Z M 206.953125 58.960938" style="stroke:none;fill-rule:nonzero;fill:rgb(100%,100%,100%);fill-opacity:1;"></path>
<path d="M 234.855469 58.960938 L 234.855469 12.199219 L 226.992188 12.199219 L 226.992188 2.289062 L 255.402344 2.289062 L 255.402344 12.199219 L 247.539062 12.199219 L 247.539062 58.960938 Z M 234.855469 58.960938" style="stroke:none;fill-rule:nonzero;fill:rgb(100%,100%,100%);fill-opacity:1;"></path>
<path d="M 258.445312 14.230469 L 271.382812 14.230469 L 271.382812 58.707031 L 258.445312 58.707031 Z M 258.445312 14.230469" style="stroke:none;fill-rule:nonzero;fill:rgb(100%,100%,100%);fill-opacity:1;"></path>
<path d="M 56.789062 2.289062 L 69.726562 2.289062 L 69.726562 12.199219 L 56.789062 12.199219 Z M 56.789062 2.289062" style="stroke:none;fill-rule:nonzero;fill:rgb(100%,100%,100%);fill-opacity:1;"></path>
<path d="M 191.226562 2.289062 L 204.164062 2.289062 L 204.164062 12.199219 L 191.226562 12.199219 Z M 191.226562 2.289062" style="stroke:none;fill-rule:nonzero;fill:rgb(100%,100%,100%);fill-opacity:1;"></path>
<path d="M 258.445312 2.289062 L 271.382812 2.289062 L 271.382812 12.199219 L 258.445312 12.199219 Z M 258.445312 2.289062" style="stroke:none;fill-rule:nonzero;fill:rgb(100%,100%,100%);fill-opacity:1;"></path>
<path d="M 343.671875 39.902344 C 343.925781 43.96875 345.449219 49.050781 350.523438 49.050781 C 353.566406 49.050781 355.085938 47.269531 357.117188 44.222656 L 365.488281 51.84375 C 361.683594 56.417969 356.863281 59.976562 349.507812 59.976562 C 337.332031 59.976562 331.242188 51.082031 331.242188 36.851562 C 331.242188 22.363281 337.839844 12.707031 349.761719 12.707031 C 364.472656 12.707031 366.25 26.9375 366.25 37.105469 L 366.25 39.644531 Z M 353.820312 32.023438 C 353.820312 25.921875 352.296875 22.363281 349 22.363281 C 345.703125 22.363281 344.179688 25.921875 343.671875 32.023438 Z M 353.820312 32.023438" style="stroke:none;fill-rule:nonzero;fill:rgb(100%,100%,100%);fill-opacity:1;"></path>
<path d="M 392.121094 27.703125 C 390.851562 25.667969 387.554688 23.636719 384.511719 23.636719 C 382.230469 23.636719 380.960938 24.90625 380.960938 26.175781 C 380.960938 32.023438 401.253906 30.242188 401.253906 45.746094 C 401.253906 53.878906 395.671875 60.230469 385.019531 60.230469 C 376.648438 60.230469 371.320312 56.417969 367.515625 52.097656 L 375.632812 43.457031 C 378.421875 47.015625 382.230469 49.558594 385.527344 49.558594 C 388.0625 49.558594 388.824219 48.03125 388.824219 47.015625 C 388.824219 40.917969 368.785156 41.171875 368.785156 27.195312 C 368.785156 20.078125 373.859375 13.214844 385.019531 13.214844 C 391.359375 13.214844 396.433594 15.503906 400.492188 20.332031 Z M 392.121094 27.703125" style="stroke:none;fill-rule:nonzero;fill:rgb(100%,100%,100%);fill-opacity:1;"></path>
<path d="M 316.53125 12.707031 C 311.710938 12.707031 308.414062 15.25 306.386719 19.0625 L 306.132812 19.0625 C 304.863281 15.25 301.820312 12.199219 296.238281 12.199219 C 290.914062 12.199219 287.617188 15.25 285.839844 19.0625 L 285.585938 19.0625 C 285.332031 16.265625 284.316406 14.230469 284.316406 14.230469 L 273.917969 14.230469 L 273.917969 58.707031 L 286.855469 58.707031 L 286.855469 27.703125 C 286.855469 24.398438 288.628906 22.871094 290.660156 22.871094 C 292.6875 22.871094 294.71875 24.398438 294.71875 27.703125 L 294.71875 58.960938 L 306.386719 58.960938 L 306.386719 27.703125 C 306.386719 24.398438 308.921875 22.871094 310.953125 22.871094 C 312.980469 22.871094 315.515625 24.398438 315.515625 27.703125 L 315.515625 58.960938 L 327.1875 58.960938 L 327.1875 29.734375 C 327.691406 18.550781 324.902344 12.707031 316.53125 12.707031 Z M 316.53125 12.707031" style="stroke:none;fill-rule:nonzero;fill:rgb(100%,100%,100%);fill-opacity:1;"></path>
<path d="M 189.453125 68.617188 L 201.878906 68.617188 L 201.878906 71.667969 L 193.257812 71.667969 L 193.257812 77.003906 L 200.613281 77.003906 L 200.613281 80.054688 L 193.257812 80.054688 L 193.257812 86.15625 L 202.132812 86.15625 L 202.132812 89.203125 L 189.453125 89.203125 Z M 189.453125 68.617188" style="stroke:none;fill-rule:nonzero;fill:rgb(100%,100%,100%);fill-opacity:1;"></path>
<path d="M 206.445312 68.617188 L 212.027344 68.617188 C 218.367188 68.617188 221.917969 71.921875 221.917969 78.785156 C 221.917969 85.644531 218.113281 89.203125 212.28125 89.203125 L 206.699219 89.203125 Z M 211.519531 86.15625 C 215.578125 86.15625 217.859375 83.867188 217.859375 78.785156 C 217.859375 73.703125 215.578125 71.667969 211.519531 71.667969 L 209.996094 71.667969 L 209.996094 86.15625 Z M 211.519531 86.15625" style="stroke:none;fill-rule:nonzero;fill:rgb(100%,100%,100%);fill-opacity:1;"></path>
<path d="M 225.722656 80.308594 L 225.722656 68.871094 L 229.273438 68.871094 L 229.273438 80.5625 C 229.273438 84.882812 231.050781 86.410156 233.332031 86.410156 C 235.871094 86.410156 237.644531 84.882812 237.644531 80.5625 L 237.644531 68.871094 L 241.195312 68.871094 L 241.195312 80.308594 C 241.195312 86.917969 238.152344 89.710938 233.585938 89.710938 C 228.769531 89.457031 225.722656 86.917969 225.722656 80.308594 Z M 225.722656 80.308594" style="stroke:none;fill-rule:nonzero;fill:rgb(100%,100%,100%);fill-opacity:1;"></path>
<path d="M 245.253906 79.039062 C 245.253906 72.429688 249.566406 68.363281 254.640625 68.363281 C 257.175781 68.363281 259.207031 69.636719 260.472656 70.90625 L 258.445312 73.195312 C 257.429688 72.175781 256.164062 71.414062 254.640625 71.414062 C 251.34375 71.414062 248.804688 74.210938 248.804688 78.785156 C 248.804688 83.359375 251.089844 86.15625 254.386719 86.15625 C 256.164062 86.15625 257.683594 85.390625 258.699219 84.121094 L 260.726562 86.410156 C 258.953125 88.441406 256.921875 89.457031 254.386719 89.457031 C 249.3125 89.457031 245.253906 85.902344 245.253906 79.039062 Z M 245.253906 79.039062" style="stroke:none;fill-rule:nonzero;fill:rgb(100%,100%,100%);fill-opacity:1;"></path>
<path d="M 268.335938 68.617188 L 272.648438 68.617188 L 279.246094 89.203125 L 275.441406 89.203125 L 273.917969 83.613281 L 267.070312 83.613281 L 265.546875 89.203125 L 261.742188 89.203125 Z M 267.832031 80.816406 L 273.15625 80.816406 L 272.394531 78.277344 C 271.636719 76.242188 271.128906 73.703125 270.621094 71.414062 C 270.113281 73.703125 269.351562 75.988281 268.84375 78.277344 Z M 267.832031 80.816406" style="stroke:none;fill-rule:nonzero;fill:rgb(100%,100%,100%);fill-opacity:1;"></path>
<path d="M 283.8125 71.667969 L 277.976562 71.667969 L 277.976562 68.617188 L 293.449219 68.617188 L 293.449219 71.667969 L 287.617188 71.667969 L 287.617188 89.203125 L 284.0625 89.203125 Z M 283.8125 71.667969" style="stroke:none;fill-rule:nonzero;fill:rgb(100%,100%,100%);fill-opacity:1;"></path>
<path d="M 296.746094 68.617188 L 300.296875 68.617188 L 300.296875 89.203125 L 296.746094 89.203125 Z M 296.746094 68.617188" style="stroke:none;fill-rule:nonzero;fill:rgb(100%,100%,100%);fill-opacity:1;"></path>
<path d="M 304.609375 78.785156 C 304.609375 72.175781 308.414062 68.363281 313.488281 68.363281 C 318.816406 68.363281 322.621094 72.175781 322.621094 78.785156 C 322.621094 85.390625 318.816406 89.457031 313.488281 89.457031 C 308.160156 89.457031 304.609375 85.390625 304.609375 78.785156 Z M 318.816406 78.785156 C 318.816406 74.210938 316.785156 71.414062 313.488281 71.414062 C 310.191406 71.414062 308.160156 74.210938 308.160156 78.785156 C 308.160156 83.359375 310.191406 86.410156 313.488281 86.410156 C 316.785156 86.410156 318.816406 83.359375 318.816406 78.785156 Z M 318.816406 78.785156" style="stroke:none;fill-rule:nonzero;fill:rgb(100%,100%,100%);fill-opacity:1;"></path>
<path d="M 326.679688 68.617188 L 330.484375 68.617188 L 336.824219 80.054688 L 338.855469 84.375 C 338.601562 82.34375 338.347656 79.800781 338.347656 77.515625 L 338.347656 68.617188 L 341.898438 68.617188 L 341.898438 89.203125 L 338.09375 89.203125 L 331.75 77.769531 L 329.722656 73.449219 C 329.976562 75.480469 330.230469 78.023438 330.230469 80.308594 L 330.230469 89.203125 L 326.679688 89.203125 Z M 326.679688 68.617188" style="stroke:none;fill-rule:nonzero;fill:rgb(100%,100%,100%);fill-opacity:1;"></path>
<path d="M 353.3125 68.617188 L 356.863281 68.617188 L 356.863281 85.902344 L 365.488281 85.902344 L 365.488281 89.203125 L 353.3125 89.203125 Z M 353.3125 68.617188" style="stroke:none;fill-rule:nonzero;fill:rgb(100%,100%,100%);fill-opacity:1;"></path>
<path d="M 373.097656 68.617188 L 377.410156 68.617188 L 384.003906 89.203125 L 380.199219 89.203125 L 378.675781 83.613281 L 371.828125 83.613281 L 370.308594 89.203125 L 366.503906 89.203125 Z M 372.589844 80.816406 L 377.917969 80.816406 L 377.15625 78.277344 C 376.394531 76.242188 375.886719 73.703125 375.378906 71.414062 C 374.871094 73.703125 374.113281 75.988281 373.605469 78.277344 Z M 372.589844 80.816406" style="stroke:none;fill-rule:nonzero;fill:rgb(100%,100%,100%);fill-opacity:1;"></path>
<path d="M 386.539062 68.617188 L 393.136719 68.617188 C 397.449219 68.617188 400.492188 69.890625 400.492188 73.703125 C 400.492188 75.734375 399.476562 77.515625 397.703125 78.023438 C 399.984375 78.53125 401.507812 80.054688 401.507812 82.851562 C 401.507812 86.917969 398.207031 88.949219 393.644531 88.949219 L 386.539062 88.949219 Z M 392.882812 77.257812 C 395.671875 77.257812 396.941406 76.242188 396.941406 74.464844 C 396.941406 72.429688 395.671875 71.667969 392.882812 71.667969 L 390.34375 71.667969 L 390.34375 77.257812 Z M 393.136719 86.410156 C 396.179688 86.410156 397.703125 85.390625 397.703125 83.105469 C 397.703125 81.070312 396.179688 80.054688 393.136719 80.054688 L 390.09375 80.054688 L 390.09375 86.664062 L 393.136719 86.664062 Z M 393.136719 86.410156" style="stroke:none;fill-rule:nonzero;fill:rgb(100%,100%,100%);fill-opacity:1;"></path>
</g>
</svg>