<svg xmlns="http://www.w3.org/2000/svg" fill="none" viewBox="0 0 180 26" height="52" width="360">
<g clip-path="url(#clip0)">
<path fill="#ffffff" d="M0 13.435C0 7.017 1.483 0.875 8.175 0.875C14.902 0.875 16.35 7.017 16.35 13.436C16.35 19.854 14.902 25.996 8.175 25.996C1.483 25.995 0 19.853 0 13.435ZM10.624 13.435C10.624 9.018 10.313 6.396 8.175 6.396C6.071 6.396 5.726 9.018 5.726 13.435C5.726 17.852 6.106 20.474 8.175 20.474C10.279 20.474 10.624 17.852 10.624 13.435Z"></path>
<path fill="#ffffff" d="M17.811 25.394V0H23.531V25.394H17.811Z"></path>
<path fill="#ffffff" d="M30.724 5.37402H24.917V25.395H30.724V5.37402Z"></path>
<path fill="#ffffff" d="M37.508 25.394L31.781 5.37402H37.956L40.025 17.318C40.163 18.182 40.336 19.154 40.336 19.154H40.405C40.405 19.154 40.577 18.182 40.716 17.318L42.716 5.37402H48.856L43.234 25.395H37.508V25.394Z"></path>
<path fill="#ffffff" d="M53.333 16.9001C53.471 18.7201 54.126 21.0681 56.402 21.0681C57.749 21.0681 58.437 20.3221 59.403 18.8721L63.129 22.3131C61.369 24.3831 59.301 26.0001 55.92 26.0001C50.4 26.0001 47.676 21.9611 47.676 15.6461C47.676 9.15806 50.457 4.81006 55.907 4.81006C62.495 4.81006 63.137 11.1581 63.137 15.7811V16.9011H53.333V16.9001ZM57.886 13.3471C57.851 10.6601 57.196 9.03406 55.747 9.03406C54.265 9.03406 53.54 10.6601 53.402 13.3471H57.886Z"></path>
<path fill="#ffffff" d="M67.7161 13.435C67.7161 7.01702 69.1981 0.874023 75.8901 0.874023C82.6171 0.874023 84.0651 7.01602 84.0651 13.435C84.0651 19.853 82.6171 25.995 75.8901 25.995C69.1981 25.995 67.7161 19.853 67.7161 13.435ZM78.3391 13.435C78.3391 9.01802 78.0281 6.39602 75.8901 6.39602C73.7861 6.39602 73.4421 9.01802 73.4421 13.435C73.4421 17.852 73.8221 20.474 75.8901 20.474C77.9941 20.474 78.3391 17.852 78.3391 13.435Z"></path>
<path fill="#ffffff" d="M91.219 5.37402H85.412V25.395H91.219V5.37402Z"></path>
<path fill="#ffffff" d="M92.519 25.394V0H98.326V25.394H92.519Z"></path>
<path fill="#ffffff" d="M104.999 25.394V4.42H101.445V0H114.272V4.42H110.718V25.394H104.999Z"></path>
<path fill="#ffffff" d="M121.466 5.37402H115.659V25.395H121.466V5.37402Z"></path>
<path fill="#ffffff" d="M30.724 0H24.917V4.42H30.724V0Z"></path>
<path fill="#ffffff" d="M91.219 0H85.412V4.42H91.219V0Z"></path>
<path fill="#ffffff" d="M121.466 0H115.659V4.42H121.466V0Z"></path>
<path fill="#ffffff" d="M154.017 16.8998C154.155 18.7198 154.81 21.0638 157.086 21.0638C158.433 21.0638 159.121 20.3148 160.087 18.8658L163.813 22.3058C162.053 24.3758 159.985 25.9918 156.603 25.9918C151.084 25.9918 148.361 21.9518 148.361 15.6378C148.361 9.14976 151.283 4.80176 156.733 4.80176C163.322 4.80176 164.107 11.1498 164.107 15.7728V16.8998H154.017ZM158.569 13.3468C158.534 10.6598 157.879 9.03376 156.43 9.03376C154.948 9.03376 154.223 10.6598 154.084 13.3468H158.569Z"></path>
<path fill="#ffffff" d="M175.731 11.3901C175.18 10.5281 173.697 9.52711 172.317 9.52711C171.317 9.52711 170.765 10.0451 170.765 10.7001C170.765 13.3571 179.836 12.5631 179.836 19.4991C179.836 23.1571 177.317 25.9871 172.524 25.9871C168.798 25.9871 166.315 24.2621 164.694 22.2951L168.385 18.3601C169.696 19.9131 171.351 21.0861 172.834 21.0861C173.973 21.0861 174.282 20.4311 174.282 19.9131C174.282 17.1541 165.246 17.3261 165.246 11.0121C165.246 7.80311 167.557 4.76611 172.523 4.76611C175.386 4.76611 177.662 5.76711 179.492 7.94011L175.731 11.3901Z"></path>
<path fill="#ffffff" d="M141.816 4.68608C139.643 4.68608 138.171 5.80708 137.275 7.54008H137.206C136.585 5.80708 135.239 4.43408 132.791 4.43408C130.411 4.43408 128.894 5.80708 128.169 7.54008H128.101C127.962 6.24008 127.48 5.37308 127.48 5.37308H122.766V7.35108C122.766 7.56808 122.766 7.78608 122.766 8.00808V25.3941H128.573V11.3551C128.573 9.87108 129.367 9.21508 130.333 9.21508C131.298 9.21508 132.127 9.87108 132.127 11.3551V25.3941H137.414V11.3551C137.414 9.87108 138.519 9.21508 139.45 9.21508C140.416 9.21508 141.487 9.87108 141.487 11.3551V25.3941H146.773V12.2881C146.772 7.31808 145.508 4.68608 141.816 4.68608Z"></path>
</g>
<defs>
<clipPath id="clip0">
<rect fill="white" height="26" width="179.837"></rect>
</clipPath>
</defs>
</svg>
