<svg id="svg3111" height="74.65155" width="487.24548" version="1.1" xmlns="http://www.w3.org/2000/svg">
  <defs id="defs3113"></defs>
  <g id="layer1" transform="translate(-170.66297,-512.17926)">
    <path style="fill:#ffffff;fill-opacity:1;fill-rule:evenodd;stroke:none" id="path32" d="m 285.85452,513.17926 c -20.07825,0.005 -32.74534,15.38545 -32.84963,36.15197 0.10429,22.09441 12.973,36.3814 32.84963,36.49958 7.52934,-0.11812 15.85124,-2.59321 21.55212,-7.47372 l 3.82378,5.21422 7.47371,0 0,-23.81162 c -0.0974,-3.97673 0.94551,-4.9848 5.21423,-4.86661 l 5.56185,0 0,-7.82134 -37.36863,0 0,7.82134 6.7785,0 c 2.55149,-0.11825 5.33936,1.30007 5.21423,4.86661 l 0,3.99756 c 0.12513,7.77963 -4.70672,12.99385 -14.94745,12.86176 -14.69022,0.13209 -19.80711,-11.58253 -19.81406,-27.28778 0.005,-15.19773 6.60468,-27.2113 17.90217,-27.28778 13.43185,0.0765 18.69474,9.8375 21.37832,19.81406 l 8.16897,0 0,-26.59256 -7.82134,0 -2.60711,5.73565 c -5.34633,-4.60937 -12.15958,-7.81439 -20.50929,-7.82134 z m -100.46075,1.04285 c -3.97672,-0.15295 -7.37639,3.12158 -7.47373,7.1261 0.0973,4.24092 3.49701,7.51544 7.47373,7.47373 4.06014,0.0417 7.43896,-3.23281 7.47372,-7.47373 -0.0348,-4.00452 -3.41358,-7.27905 -7.47372,-7.1261 z m 157.46961,0 c -3.90024,-0.15295 -7.2721,3.12158 -7.12611,7.1261 -0.14599,4.24092 3.22588,7.51544 7.12611,7.47373 4.13663,0.0417 7.52934,-3.23281 7.47373,-7.47373 0.0556,-4.00452 -3.3371,-7.27905 -7.47373,-7.1261 z m -141.30551,1.04284 0,6.7785 5.21422,0 c 2.80873,0.0834 4.13662,1.15408 3.99758,4.17138 l 0,46.58042 c 0.13904,2.89215 -1.18885,3.9489 -3.99758,3.82376 l -4.86661,0 -0.34761,0 -4.519,0 c -3.02425,0.12514 -4.20614,-0.93161 -4.17138,-3.82376 l 0,-37.36862 -21.20452,0 0,6.7785 4.86661,0 c 2.84349,-0.005 4.02538,1.07065 4.17138,4.17137 l 0,26.41875 c -0.146,2.89215 -1.32789,3.9489 -4.17138,3.82376 l -4.86661,0 0,6.9523 29.8949,0 0.34761,0 29.8949,0 0,-6.9523 -4.86661,0 c -2.73921,0.12514 -3.90025,-0.93161 -3.82377,-3.82376 l 0,-57.5303 -21.55213,0 z m 379.42183,0 0,6.7785 4.86661,0 c 2.90606,0.0834 4.081,1.15408 4.17137,4.17138 l 0,46.58042 c -0.0904,2.89215 -1.26531,3.9489 -4.17137,3.82376 l -4.86661,0 0,6.9523 30.24251,0 0,-6.9523 -4.86661,0 c -2.96168,0.12514 -4.14358,-0.93161 -4.17139,-3.82376 l 0,-57.5303 -21.20451,0 z m -195.88109,18.4236 c -15.38544,0.10425 -26.47437,9.40646 -26.41874,25.72351 -0.0556,16.4422 11.0333,25.73048 26.41874,25.72352 15.52448,0.005 26.62731,-9.28132 26.76636,-25.72352 -0.13905,-16.31705 -11.24188,-25.61922 -26.76636,-25.72351 z m 61.52787,0 c -5.56185,0.11125 -8.78076,3.42749 -13.03557,9.55941 l 0,-7.82133 -21.72594,0 0,6.7785 5.38804,0 c 2.90606,0 4.26176,1.0776 4.34518,4.17137 l 0,26.41875 c -0.0834,2.8991 -1.43912,3.9489 -4.34518,3.82376 l -5.38804,0 0,6.9523 32.50201,0 0,-6.9523 -6.60469,0 c -2.96168,0.12514 -4.13662,-0.92466 -4.17138,-3.82376 l 0,-17.20695 c 0.0348,-7.47372 4.3591,-15.96944 12.68795,-15.99029 1.6616,0.0209 3.28148,0.16685 4.519,1.56427 -3.81682,-0.0626 -6.84802,2.18302 -6.77849,6.25707 -0.0695,4.06014 3.18415,6.36135 7.1261,6.43088 5.1308,-0.0695 7.91867,-3.99758 7.82134,-8.69038 0.0974,-7.45982 -5.74955,-11.36006 -12.34033,-11.4713 z m 54.57557,0 c -7.96039,0.11125 -13.63347,4.26176 -17.90218,10.77608 l -0.17381,0 0,-9.038 -22.24736,0 0,6.7785 3.64996,0 c 5.31155,0 6.47954,1.16102 6.43087,5.56183 l 0,25.02829 c 0.0486,2.8991 -1.13322,3.9489 -4.17138,3.82376 l -5.90945,0 0,6.9523 30.59012,0 0,-6.9523 -4.17139,0 c -2.82957,0.12514 -4.01147,-0.92466 -4.17137,-3.82376 l 0,-19.11884 c 0.1599,-6.44477 6.68811,-11.805 11.6451,-11.8189 4.93614,0.0139 8.98932,1.61988 9.038,9.3856 l 0,21.55214 c -0.0486,2.8991 -1.32094,3.9489 -5.56185,3.82376 l -2.4333,0 0,6.9523 30.24251,0 0,-6.9523 -3.99757,0 c -4.88052,0.12514 -6.0207,-0.92466 -6.08327,-3.82376 l 0,-22.42117 c 0.0625,-11.02635 -5.63136,-16.57429 -14.77363,-16.68553 z m 48.14467,0 c -7.98124,0.10425 -20.55795,2.39855 -20.50929,13.03556 -0.0486,4.09492 3.09378,7.48764 7.64754,7.47373 3.90024,0.0139 7.06354,-1.33484 7.12611,-6.08326 -0.0626,-4.10882 -3.17025,-5.76345 -6.95231,-5.21423 1.82846,-2.50977 6.79936,-3.50396 9.55942,-3.64996 5.57574,0.146 11.0333,1.41827 10.94988,8.16896 0.0834,14.3704 -30.85431,4.63023 -30.93775,24.68066 0.0835,9.21875 6.4726,13.04253 14.42603,13.03557 6.56992,0.005 13.11205,-1.8354 16.85933,-7.47372 0.88989,5.32547 5.33242,7.48068 10.42845,7.47372 8.71124,0.005 13.39013,-4.72757 13.38318,-16.1641 l 0,-3.30234 -6.60469,0 0,3.82376 c -0.0834,6.45174 -1.16799,7.91173 -2.78091,7.82134 -1.48084,0.0904 -2.5654,-1.09151 -2.43331,-3.30234 l 0,-25.3759 c -0.13209,-8.56524 -6.09717,-14.84316 -20.16168,-14.94745 z m 84.64428,0 c -14.16184,0.10425 -23.89507,10.74131 -23.81164,25.72351 -0.0834,16.7481 8.454,25.73743 24.50686,25.72352 13.62651,0.0139 20.6831,-6.93839 22.07356,-18.5974 l -8.34276,0 c -1.48085,7.02182 -5.18642,10.8734 -12.68795,10.77606 -9.5038,0.0974 -12.07615,-8.4818 -11.81891,-16.51171 l 32.84962,0 c 1.29313,-11.74939 -5.81212,-27.00969 -22.76878,-27.11398 z m -304.51079,1.73808 0,6.7785 4.51899,0 c 2.93387,-0.005 4.27567,1.07065 4.34518,4.17137 l 0,26.41875 c -0.0695,2.89215 -1.41131,3.9489 -4.34518,3.82376 l -4.51899,0 0,6.9523 29.89488,0 0,-6.9523 -4.86661,0 c -2.94081,0.12514 -4.11576,-0.93161 -4.17137,-3.82376 l 0,-37.36862 -20.8569,0 z m 55.6184,5.21422 c 8.41228,0.0765 12.74357,6.4726 12.68795,18.77121 0.0556,12.42377 -4.27567,18.98674 -12.68795,18.94503 -8.28019,0.0417 -12.61148,-6.52126 -12.68795,-18.94503 0.0765,-12.29861 4.40776,-18.69473 12.68795,-18.77121 z m 248.89239,0.52143 c 7.16781,-0.1599 9.33693,6.22926 9.21179,12.68795 l -19.29263,0 c 0.36151,-6.45869 2.92691,-12.84785 10.08084,-12.68795 z m -76.82293,17.03313 0,6.7785 c 0.0834,6.47954 -3.69863,12.43072 -10.60226,12.34033 -4.33129,0.0904 -6.36137,-2.00226 -6.25708,-6.43088 -0.10425,-4.73451 3.17025,-6.38916 6.25708,-7.82133 l 10.60226,-4.86662 z"></path>
  </g>
</svg>
