<svg xmlns="http://www.w3.org/2000/svg" width="295" viewBox="0 0 295 41" height="41" fill="none"><g fill="#fff"><path d="m8.81743 22.2047v-10.7874l-3.54331 1.4174s-.86614 1.811-.70866 4.4881c.07874 2.126 1.33858 4.567 2.28346 5.6693zm9.52757-22.2047c.7874.0787402 2.126.472442 3.0709 1.25984 1.0236.94489 1.2598 2.44095.9448 3.77953-.3149 1.18111-.7086 1.81103-1.9685 2.67717-1.2598.86614-2.2047.94488-2.2047.94488v5.19688l2.441 1.8897-2.441 2.2048v7.0866s2.0473-1.6536 3.6221-4.8819c0 0 .0787-.1575.2362-.5512.1575.8662.0787 2.6772-.9449 4.8819-.7874 1.7323-2.126 3.3071-3.937 4.252-3.0709 1.6535-5.4331 1.811-7.87403 1.3386-2.91339-.5512-5.59056-2.126-7.32284-4.8819-1.259843-1.9685-1.811024-4.1733-1.811024-6.6142.07874-4.8032 3.779534-8.89766 8.031504-10.47246.55118-.15748.70866-.31496 1.41732-.3937-.31496.23622-.70866.47244-1.1811.7874-1.33859.86614-2.51969 2.59846-3.07087 3.93706l8.18894-3.54336v11.10236l-6.5354 3.2284c.7874 1.0236 3.0709 2.5196 5.0394 2.7559 3.3071.3937 5.5118-.8662 5.5118-.8662v-7.2441l-2.441-2.126 2.441-1.8897v-5.19688c-1.4173-.15748-3.3858-.7874-4.3307-1.02362-1.4961-.31496-6.37798-1.65354-7.16538-1.81103-.7874-.07874-1.73228-.07874-2.28347.39371-.55118.47244-.94488 1.41732-.70866 2.20472.15748.47244.47244.70866.70866.94488 0 0-.31496 0-.7874-.31496-.94488-.55118-1.65354-1.5748-1.73228-2.91338-.04597-.82401.1177-1.64621.47572-2.3898.35802-.74358.8987-1.38426 1.57152-1.86218 1.25985-.7874 2.67717-1.259838 4.33071-1.023617 2.44098.314957 5.66928 1.653547 8.58268 2.362207 1.1024.23622 1.9685.31496 2.7559-.07874.3937-.23622 1.0236-.94488.4725-1.81103-.63-1.023619-1.8111-1.023619-2.8347-1.1811.9449-.15748015 1.1024-.15748 1.7323-.15748z"></path><path d="m50.3923 19.37-3.7796 2.6772v-8.8189zm-.1575-8.5039-4.1732 2.4409-3.9371 2.0473v10.2362l-1.496 1.1811.2362.2362 1.4961-1.1811 4.6456 4.0158 8.0315-6.1418-.1574-.2362-4.4882 3.3858-3.7796-3.2283v-1.2598l7.3229-5.1969z"></path><path d="m29.1324 33.8583c1.0236.2362 2.9134.3937 5.1969-.7086 2.5196-1.1812 3.4645-3.7796 3.4645-6.378l.0788-3.7008v-8.189l1.5748-1.1811-.1575-.2362-1.5748 1.1811-3.3858-3.937-5.1969 3.8583v-13.07091l-5.2756 4.33072c.2362.15748 1.4173.31496 1.4173 1.41732v18.34647l-2.7559 1.7323.1575.2362 1.1811-.8661 3.3071 2.9921 5.1968-4.0158-.1574-.2362-1.2599.9449-1.7323-1.1811v-10.2362l2.0473-1.2599 2.8346 2.9134v8.8189c0 2.3622-.6299 5.1181-1.8897 6.5354-1.2599 1.4174-1.7323 1.4961-3.0709 1.8898z"></path><path d="m65.1954 32.9135c-2.0472-.2363-2.9134-1.4174-2.9134-2.441 0-.6299.63-1.811 1.8898-1.9685s2.5197.3937 3.622 1.6536l4.8032-5.1182-.2362-.2362-1.2599 1.4173c-1.3385-1.4173-2.9134-2.3622-4.8031-2.5984v-15.66929l12.2047 21.96849s.315.2363.8662.2363c.4724 0 .3149-.315.3149-.315v-22.12601c1.0236 0 2.3622-.55118 3.1496-1.33858 2.3622-2.3622 1.4173-4.96063 1.1811-5.27559-.1575 1.10236-1.0236 2.28346-2.5197 2.28346-1.9685 0-3.1496-1.41732-3.1496-1.41732l-4.9606 5.35433.2362.23622 1.3386-1.49606c1.6535 1.49606 2.5984 1.65354 3.8583 1.73228v12.83467l-8.8977-16.29923c-.8661-1.33859-2.126-2.51969-4.0945-2.51969-2.2834 0-3.937 1.9685-4.1732 3.62205-.2362 1.88976 0 2.3622 0 2.3622s.315-2.12598 1.6536-2.12598c1.1811 0 1.5748.62992 2.1259 1.41732v5.19683c-1.2598.0788-4.2519.2362-4.4882 3.5433 0 1.2599.7875 2.5197 1.4961 2.9134.8662.5512 1.5748.5512 1.5748.5512s-1.0236-.5512-.7086-1.6535c.3149-.9449 2.1259-1.1024 2.2047-.7087v6.6142c-1.0236 0-3.937.0787-5.4331 2.7559-.8661 1.5748-.7874 3.3858.0787 4.6457.7874 1.1023 2.3623 2.4409 5.0394 1.9685z"></path><path d="m91.6521 19.37-4.0945 2.6772v-8.8189zm-.1575-8.5039-4.2519 2.4409-3.7008 2.0473v10.2362l-1.4961 1.1811.2362.2362 1.4961-1.1811 4.3307 4.0158 8.0315-6.1418-.1575-.2362-4.4882 3.3858-3.622-3.307v-1.2599l7.3228-5.1968z"></path><path d="m102.833 30.0788-3.9368-3.1496-1.7323 1.1811-.1574-.2362 1.7322-1.2599v-8.8976c.0788-3.6221-3.4645-2.7559-3.2283-6.6142.0787-1.73227 1.811-2.99212 2.6772-3.38582.9448-.47244 1.8894-.47244 1.8894-.47244s-1.6532.94488-1.2595 2.36221c.6299 2.20475 4.4095 2.36225 4.4885 5.27555v10.0788l2.441 2.2047.708-.5512v-10.9449l-1.102-1.496 3.937-3.3859 3.622 3.0709-1.654 1.4173v9.6851l3.622 2.6771.63-.3937v-11.5748l-1.496-1.4173 3.937-3.4646 3.701 2.9134 1.496-1.2598.158.2362-3.307 2.8347v9.4488l-8.426 5.0394-4.33-3.2284z"></path><path d="m275.983 19.3702-4.173 2.6771v-8.8189zm-.079-8.504-4.252 2.441-3.858 2.0472v10.2362l-1.654 1.1811.237.2363 1.496-1.1812 4.645 4.0158 8.032-6.1417-.158-.2363-4.488 3.3859-3.701-3.3071v-1.2599l7.323-5.1968z"></path><path d="m248.188 14.7244.866-.7086 2.283 2.8346v8.4252l-.708.9449 3.307 3.5433 3.543-3.3858-1.417-1.3386v-10.2362l1.023-.7874 2.914 2.7559v8.4252l-1.181.7874 3.7 3.8582 4.882-4.3307-.236-.2362-1.181 1.0236-2.047-1.8897v-9.6063l1.968-1.3386-.157-.2362-1.811 1.3385-3.307-3.622-4.725 3.622-3.386-3.4645-4.567 3.4645-3.385-3.4645-4.882 4.0945.157.2362 1.575-1.2599 2.205 2.441v8.5039l-1.103.9449 3.544 3.8583 3.622-3.4646-1.496-1.496zm-6.851 11.1024-.157-.2362-1.418 1.1811-1.889-2.126v-9.5276l1.653-1.3386-.236-.2362-1.575 1.3386-3.386-3.8583-5.039 3.937.63.1575 1.26-1.0236 2.047 2.2835v9.685l-1.417 1.1811.157.2362 1.496-1.2598 3.229 3.622zm-6.771-22.04726 2.834 3.07087-3.543 3.07087-2.835-2.99213z"></path><path d="m215.274 22.2047v-10.7874l-3.307 1.4174s-.866 1.811-.709 4.4881c.079 2.126 1.339 4.567 2.284 5.6693zm9.449-22.2047c.866.0787402 2.126.472442 3.071 1.25984 1.024.94489 1.26 2.44095.945 3.77953-.315 1.18111-.709 1.81103-1.969 2.67717s-2.204.7874-2.204.7874v5.19686l2.362 2.0472-2.362 2.0473v7.0079s1.968-1.4174 3.622-4.6457c0 0 .078-.1575.236-.5512.157.8662.079 2.6772-.945 4.8819-.787 1.7323-2.126 3.3071-3.937 4.252-3.071 1.6535-5.433 1.811-7.874 1.3386-2.913-.5512-5.591-2.126-7.323-4.8819-1.26-1.9685-1.811-4.1733-1.811-6.6142.079-4.8032 3.78-8.89766 8.032-10.47246.472-.15748.708-.31496 1.417-.3937-.315.23622-.709.47244-1.181.7874-1.339.86614-2.52 2.59846-3.071 3.93706l8.11-3.38588v11.10238l-6.457 3.0709c.788 1.0236 3.071 2.5196 5.04 2.7559 3.307.3937 5.433-1.0237 5.433-1.0237v-7.2441l-2.362-2.0472 2.362-2.0472v-5.1969c-1.417-.15748-3.228-.62992-4.252-.86614-1.496-.31496-6.378-1.65355-7.165-1.81103-.788-.07874-1.733-.07874-2.284.39371-.551.47244-.945 1.41732-.709 2.20472.158.47244.473.70866.709.94488 0 0-.315 0-.787-.31496-.945-.55118-1.654-1.5748-1.733-2.91338-.046-.82401.118-1.64621.476-2.3898.358-.74358.899-1.38426 1.572-1.86218 1.26-.7874 2.677-1.259839 4.33-1.023618 2.441.314958 5.67 1.653548 8.583 2.362208 1.102.23622 1.969.31496 2.756-.07874.394-.23622 1.024-.94488.472-1.81103-.63-1.023619-1.811-1.023619-2.834-1.1810995.866-.0787402 1.102-.0787405 1.732-.0787405z"></path><path d="m285.983 12.9134v5.1181l2.205 1.4961s3.779-2.9921 5.196-5.6693c0 0-1.732 2.2835-4.015 1.5748-1.969-.5512-2.914-2.441-2.914-2.441m-4.33 13.3859s1.653-2.6772 4.567-2.126c2.755.5512 4.015 3.3858 4.015 3.3858v-6.4567l-2.283-1.5748c-2.047 2.0473-5.827 4.9607-6.299 6.7717zm2.756 4.8819c-.552.1574-2.835-.3937-3.386-2.7559-.551-2.2835 1.102-3.7796 3.543-6.2205l-2.913-2.5984v-4.8819s2.126-1.0237 3.779-2.0473l3.386-2.126s1.26 1.4961 2.677 1.4174c2.205-.1575 2.126-1.8898 2.047-2.28351.394.62991 1.418 2.59841-2.519 6.92911l3.149 2.441v6.3779s-3.622 1.8111-7.165 4.3307c0 0-1.969-2.3622-3.622-1.2598-1.102.8661-.551 2.126 1.024 2.6772z"></path><path d="m157.636 24.0157 4.095 3.5433v-10.8661l-4.095-3.6221zm8.741-8.8976 1.417-1.2599.236.2362-1.732 1.2599v10.1575l-4.095 2.3622-3.779 2.2047-4.803-3.937-1.26 1.1024-.236-.2363 1.653-1.1023v-11.0237h-.236l4.173-2.0472 3.622-2.0472z"></path><path d="m175.904 14.0944 3.071-3.0708s.394.3937.787.5512c.237.0787 1.182.5511 1.969.0787.472-.2362.551-.315 1.024-.7874.078 2.3622-1.103 4.0157-2.52 4.7244-.63.315-2.677.7874-4.567-1.3386v10.9449l2.283 1.6535 1.654-1.2598.157.2362-5.039 4.0945-3.858-3.3858-1.418 1.2598-.236-.2362 1.733-1.811v-9.3701l-1.26-2.0472-1.418 1.1811-.236-.2363 4.882-4.2519z"></path><path d="m188.818 18.6614 5.669-7.9528s.787.8662 2.047 1.1811c1.732.4725 3.307-1.1811 3.307-1.1811-.315 2.126-1.417 4.5669-3.701 4.9607-2.047.3149-3.937-1.1812-3.937-1.1812l-.393.5512 7.874 11.4961 1.574-1.3386.237.2362-5.433 4.567z"></path><path d="m184.408 7.95282c0-1.73229-1.024-2.75591-1.968-2.67717l5.905-4.17323v23.77958l1.89 1.6535 1.26-1.0236.236.2362-4.961 4.1732-3.386-3.0708-1.338 1.1811-.236-.2363 2.677-1.9685v-17.87398z"></path><path d="m144.408 14.6457s-.709.7874-1.732.7874c-1.103 0-1.575-.7874-1.575-.7874v3.2283s.472-.7874 1.575-.7874c1.102 0 1.732.7087 1.732.7087zm-.157-6.92918-1.969-2.04725-1.181.86614v7.63779s.709.8662 1.811.8662 1.339-.8662 1.339-.8662zm-3.15 21.57478s1.417.3937 2.52-.4724c1.181-.9449.63-2.2047.63-2.2047v-8.189s-.315-.8662-1.339-.8662c-1.102 0-1.811.8662-1.811.8662zm-8.661-21.73226c0-1.57481-.709-2.51969-1.733-2.51969-1.575 0-1.968 2.12599-1.968 2.12599s-.315-1.65355 1.181-3.14961c.787-.86615 2.283-2.04725 4.646-1.49607 2.44.55118 3.385 2.36221 3.385 4.01575v22.12599c.416.1009.836.1798 1.26.2362.709.1575 1.103.315 1.103.315v-26.6142h.787v3.62205l4.803-3.85827 3.622 3.14961 1.732-1.41732.158.23622-1.732 1.49606v20.55115c-.079 1.3386-.315 2.6772-1.654 3.4646-2.913 1.6536-6.457-.2362-9.606-.7086-2.362-.315-5.984-.7875-6.929 1.3385-.315.7087-.315 1.7323.787 2.441 2.126 1.3386 11.575-2.2835 14.803-.8662 2.914 1.3386 2.914 3.4646 2.52 4.8819-.787 2.6772-4.331 3.2284-4.331 3.2284s1.732-.9449 1.26-2.5984c-.236-.7875-.787-1.0237-2.677-.8662-4.016.4724-8.898 2.3622-12.126 1.0236-1.654-.7086-2.835-2.6771-2.756-4.7244.079-2.8346 3.543-4.0157 3.543-4.0157v-10.63c-.078-.3937-1.889-.3149-2.362.4725-.63 1.1811.787 1.7323.787 1.7323s-1.102.1574-2.047-.8662c-.472-.4724-1.417-2.2834-.157-4.0157 1.023-1.4173 2.283-1.6536 3.858-1.811z"></path></g></svg>