<svg xmlns="http://www.w3.org/2000/svg" width="205" viewBox="0 0 205 38" height="38" fill="none"><g fill="#fff"><path d="m.199951 0h14.955749c2.8487 0 4.9853.718488 6.5679 1.91597 1.7409 1.43697 2.6905 3.5126 2.6905 6.06722 0 2.95381-1.187 4.78991-3.5609 5.90761v.1596c3.1652 1.0378 4.9852 3.9118 4.9852 7.3446 0 3.2731-1.2661 5.8277-3.3235 7.4243-1.7409 1.2773-3.9565 1.8362-6.9635 1.8362h-15.351449zm13.452249 11.9748c1.5827 0 2.7696-.8782 2.7696-2.7143 0-1.7563-1.1869-2.63445-2.8487-2.63445h-5.14351v5.26895h5.22261zm.7122 11.8949c1.82 0 3.1653-1.1176 3.1653-3.1134 0-2.1555-1.4244-3.1134-3.1653-3.1134h-5.85568v6.3067h5.85568z"></path><path d="m27.1837 0h7.8339v30.7353h-7.8339z"></path><path d="m36.6003 19.7983c0-6.9454 4.4313-11.57564 11.3157-11.57564s11.2366 4.71004 11.2366 11.57564c0 6.9454-4.3522 11.5756-11.2366 11.5756s-11.3157-4.6302-11.3157-11.5756zm14.7183 0c0-3.8319-1.1869-6.2269-3.5609-6.2269-2.3739 0-3.4817 2.395-3.4817 6.2269s1.1078 6.3067 3.4817 6.3067c2.374-.0798 3.5609-2.4748 3.5609-6.3067z"></path><path d="m60.0231 19.7983c0-6.9454 4.4313-11.57564 11.3157-11.57564s11.1575 4.63024 11.1575 11.57564-4.3522 11.5756-11.2366 11.5756c-6.8053 0-11.2366-4.6302-11.2366-11.5756zm14.7184 0c0-3.8319-1.187-6.2269-3.5609-6.2269-2.374 0-3.4818 2.395-3.4818 6.2269s1.1078 6.3067 3.4818 6.3067c2.3739-.0798 3.5609-2.4748 3.5609-6.3067z"></path><path d="m84.0789 8.78148h7.2801v3.27312h.1582c1.4244-2.55463 3.4027-3.91178 6.5679-3.91178 2.7699 0 4.8269 1.35715 5.8559 3.75208h.158c1.741-2.87393 4.036-3.75208 6.726-3.75208 5.065 0 7.201 3.75208 7.201 8.78148v13.7311h-7.596v-12.3739c0-2.2353-.713-3.6723-2.612-3.6723s-2.848 1.7563-2.848 4.1513v11.8949h-7.5971v-12.3739c0-2.2353-.7121-3.6723-2.6113-3.6723-1.8991 0-2.8487 1.7563-2.8487 4.1513v11.8949h-7.834z"></path><path d="m127.601 27.7815h-.079v2.874h-7.28v-30.6555h7.596v11.0168h.159c1.424-1.91596 3.402-2.95377 6.172-2.95377 5.46 0 8.625 4.94957 8.625 11.57567 0 7.4243-3.402 11.7353-9.1 11.7353-2.374 0-4.827-1.1177-6.093-3.5925zm7.359-8.2227c0-3.5126-1.266-5.8277-3.561-5.8277-2.374 0-3.798 2.3151-3.798 5.8277s1.504 5.8278 3.798 5.8278c2.295 0 3.561-2.2353 3.561-5.8278z"></path><path d="m143.665 19.7185c0-6.8656 4.51-11.57568 10.999-11.57568 3.244 0 5.697 1.03782 7.596 2.87398 2.533 2.4748 3.64 6.3067 3.561 10.7773h-14.56c.317 2.7143 1.583 4.1512 3.878 4.1512 1.345 0 2.532-.6386 3.007-2.0756h7.359c-1.266 5.0294-5.144 7.5042-10.604 7.5042-6.726-.0798-11.236-4.7101-11.236-11.6554zm7.596-2.3152h6.964c-.158-2.6344-1.583-3.9916-3.403-3.9916-2.136-.0798-3.323 1.437-3.561 3.9916z"></path><path d="m174.447 12.5336h.158c1.583-3.03363 3.64-4.23111 6.251-4.23111.633 0 1.029.07983 1.266.2395v6.70591h-.158c-4.51-.7984-7.122 1.3571-7.122 6.3067v9.1807h-7.675v-21.95382h7.28z"></path><path d="m182.914 30.7353h7.359c.316.9579 1.266 1.8361 3.086 1.8361 2.453 0 3.324-1.5168 3.324-3.8319v-1.5967h-.159c-1.187 1.437-2.848 2.4748-5.222 2.4748-4.669 0-8.784-3.5126-8.784-10.3781 0-6.3068 3.324-11.17651 8.388-11.17651 2.928 0 4.669 1.19748 5.856 3.03361h.158v-2.39496h7.28v18.99996c0 3.5126-1.187 6.2269-3.007 7.8236-1.899 1.6764-4.59 2.3949-7.676 2.3949-5.855.0799-9.891-2.3151-10.603-7.1848zm14.085-11.8152c0-2.7143-1.266-4.9495-3.482-4.9495-2.136 0-3.482 1.9159-3.482 4.9495 0 2.9538 1.346 5.0294 3.482 5.0294 2.137 0 3.482-2.1554 3.482-5.0294z"></path></g></svg>