<svg xmlns="http://www.w3.org/2000/svg" width="278" viewBox="0 0 278 40" height="40" fill="none"><path fill-rule="evenodd" fill="#fff" d="m5.49856 14.8252c.54472-1.4786 1.29696-2.6458 2.25671-3.5018.12841-.0535.26379-.0885.40206-.1038.12969-.013.4669-.0259.99865-.0259.29831 0 .5577.0259.77818.0648.24334.044.47924.1227.70034.2335.2905.1476.5719.3121.843.4928l-4.08538 3.2424.95975.7782v10.8037c-1.03981-.508-1.90289-1.3169-2.47719-2.3216-.80412-1.3877-1.1932-3.2424-1.1932-5.5769 0-1.2581.25939-2.6199.81708-4.0984zm-.38909-4.1503c.31013.0073.61869.0464.92084.1167l1.03757.2335c-2.24374.9857-3.96869 2.6328-5.18783 4.9284-1.063563 2.023-1.611513 4.2772-1.595264 6.5626 0 2.9311 1.037564 5.4472 3.060824 7.5224.95528 1.0145 2.1123 1.8178 3.39666 2.3584 1.28436.5405 2.66762.8063 4.06083.7802 2.8274 0 5.2138-1.0765 7.1592-3.2424 1.9161-2.0781 2.9608-4.8128 2.9182-7.6391-.2272.5526-.5283 1.0717-.8949 1.5434-.4251.5073-.8986.9721-1.4137 1.3878-.3312.2955-.692.5563-1.0765.7781-.4056.214-.8211.4087-1.2451.5837v-14.3963c.6485-.2594 1.1673-.5447 1.5564-.8171.3891-.2723.8041-.6873 1.258-1.2191 1.297-1.29695 1.8158-2.76252 1.9455-4.35778-.7209.49197-1.4901.90916-2.2956 1.24508-.6744.25939-1.4526.44097-2.2956.51879-.1297 0-.3243.01297-.5577.0389-1.4448-.12651-2.8573-.49937-4.1762-1.10241-1.8547-.73927-3.32026-1.10241-4.38377-1.10241-2.10107 0-3.80009.98568-5.08408 2.95706-1.14132 1.76387-1.724951 3.85197-1.724951 6.27727.191072-.7971.594431-1.5277 1.167261-2.114.45201-.5031.97657-.9358 1.55635-1.284.58364-.3891 1.23211-.5577 1.9195-.5577zm19.48033 22.3077 3.4758-3.8909-1.7638-1.8417v-10.4016l.9986-.6744 2.8015 2.114v13.7348c0 .7782-.0519 1.4267-.1297 1.9844-.0838.5165-.2981 1.0031-.6226 1.4137l-.9857 1.2191c-.4409.5447-.9986.9727-1.6601 1.297 1.3359-.1297 2.4254-.428 3.2813-.9079.856-.4799 1.738-1.2062 2.6458-2.2048.6138-.6663 1.1212-1.423 1.5045-2.2438.3385-.7624.5615-1.5711.6615-2.3994v-15.343l-1.1932.0778-3.8909-2.5161-2.5939 2.2438-.882-.4799v-7.60017l-.8041-1.72496-3.5536 3.47585v19.71378l-1.0765 1.297zm11.932-4.3578 6.4459 4.0725 6.1216-6.433-3.3202 2.3605-4.0854-2.9182v-2.7236l7.263-5.4472-4.6431-6.2254-7.3927 5.1619v11.2835zm21.3998-20.10286v7.48346c-.4432.0362-.8795.1321-1.2969.2853-.3372.1297-.6874.3632-1.0635.6744-1.0635.8301-1.5953 1.8936-1.5953 3.2035-.0098.4077.0427.8144.1556 1.2062.3891-.3242.7393-.5188 1.1025-.6485.4357-.1143.8854-.1667 1.3358-.1556.2594 0 .4799.0259.6485.0778s.3891.1556.7263.3242v7.3538l5.525 5.5769 5.0841-5.1619 6.1217 5.1619 8.9231-8.6377v-14.7854l-5.5251-4.24101-4.0854 3.68336-5.5769-3.68336-4.9674 4.15031v-2.43833c0-.80411-.5706-1.71198-1.7249-2.72361l-.9857-.73927c-.3113-.25939-.4929-.60957-.5448-1.07647-.0467-.37874-.0727-.75975-.0778-1.14133 0-.90787.3113-1.621195.9079-2.165917-.227-.0423981-.4567-.0684042-.6874-.0778175-1.1932 0-2.2567.4928445-3.1775 1.5044745-.9209 1.01163-1.3748 2.11404-1.3748 3.34615 0 .18158.0259.44097.0778.77818.0927.61004.3246 1.19057.6777 1.6966.3531.50604.818.92401 1.3585 1.22155zm26.7174 20.32336 4.9673 3.4758 3.5926-3.411 4.28 2.983 3.6831-3.9557h-1.2967l-1.6342-1.686v-11.7245l-.8819.1556-4.1503-3.4759-7.8855 5.4473v11.4781zm23.864-16.8216c-.505-.241-.98-.5415-1.414-.8949l-6.523 4.6042v7.7558l.596.4799h3.891l-5.058 8.7545c.778-.6485 1.375-1.1024 1.816-1.3229.609-.2979 1.28-.4489 1.958-.441.856 0 1.556.1038 2.075.2983.519.1946 1.077.5577 1.647 1.0635l6.394-5.0322v-7.8855l-.479-.4799h-4.28v-.389l3.8-6.6794c-.389.2594-.727.3891-.96.415-.383.0497-.769.0714-1.154.0649h-.843c-.505.0089-1.005-.0929-1.466-.2983zm10.142 20.4271 3.502-3.9168-1.764-1.8417v-10.4016l.96-.6744 2.853 2.153v13.6829c.01.6643-.038 1.3282-.142 1.9843-.091.5188-.312.9987-.649 1.4267l-.882 1.1672c-.481.5614-1.067 1.024-1.725 1.3618 1.134-.0792 2.241-.3834 3.256-.8949 1.016-.5503 1.919-1.2899 2.658-2.1789.61-.7262 1.09-1.4655 1.427-2.2567.337-.7911.571-1.5952.674-2.4253v-15.3819l-1.167.1297-3.8-2.5161-2.594 2.2048-.882-.4799v-7.56123l-.778-1.76386-3.606 3.47585v19.73974l-1.076 1.2321zm19.247-23.64353-3.605-2.91816-2.919 3.20349 3.035 2.7625zm-5.642 9.03983v10.8944l-.778 1.1673h1.362l3.113 2.6328 3.281-2.983 4.202 3.398 3.683-4.0724-1.167-1.4785v-10.2071l.96-.4799 2.127 2.3345v9.9866l3.722 3.2424 3.606-4.0854h-1.686l-.96-1.5563v-10.8945l.48-.9987-.96.1946-3.8-2.9441-3.605 3.7223-4.203-3.3203-3.475 3.8909h1.361l1.168 1.3618v9.9866l-2.335.8041-1.478-1.1672v-11.2058l.479-.6744-4.15-3.0738-3.398 3.6056 1.167.3631zm71.93 10.5053-1.168-1.4785v-10.1941l.96-.4799 2.127 2.3346v10.0384l3.722 3.2035 3.593-4.0854h-1.686l-.96-1.5564v-10.8944l.48-.9598-.96.1557-3.683-2.9182-3.593 3.7223-4.202-3.3202-3.476 3.8908h1.362l1.167 1.3619v10.0384l-1.426 1.9195 4.435 2.9182zm-47.041.0779c.495-.0073.989.0582 1.466.1945.471.1515.911.389 1.297.7004.428.3372.739.6484.933.9597.195.3113.363.7263.519 1.2581l-2.075 2.6847-2.205 2.957c.443-.2758.93-.4732 1.44-.5836.389-.0649.985-.1038 1.764-.1038.809.0483 1.6.2647 2.321.6355.692.3875 1.293.9181 1.764 1.5564 1.297-.4799 2.763-1.5564 4.462-3.2035s2.542-3.0089 2.542-4.0854c-.13-.5908-.326-1.1651-.584-1.712-.391-.9684-.589-2.0036-.584-3.0478v-12.4509l-5.577-3.4758-7.003 4.9673v11.8413zm13.8-13.683h2.334v13.8775l-.558 1.0765h1.362l2.918 2.2437 3.891-4.28h-1.634l-1.076-1.1672v-11.4651l2.36-2.9182h-2.36v-7.65205l-4.76 4.4356v3.03485zm10.116 13.683 4.954 3.5017 8.638-6.0438v-11.7634l-.882.1945-4.15-3.5017-7.873 5.4472v11.4781zm40.595-19.84352v3.72232c-.596-.0131-1.19.0612-1.764.2204-.48.1297-.934.428-1.375.856s-.7.9079-.778 1.4786c-.078.5706-.13 1.2969-.13 2.2048 0 .3891-.013.6225-.039.7782.584-.9338 1.401-1.3229 2.439-1.1673.7.1038 1.245.3891 1.634.8819v6.1995c-1.217.6298-2.304 1.4835-3.204 2.5161-1.011 1.2062-1.686 2.4383-2.036 3.7223.452-.3565.933-.6733 1.44-.9468.389-.1946.959-.3891 1.686-.6225l.908-.2594c.35-.0908.752-.1297 1.206-.1297v11.9579l5.239-4.2799 1.764 1.2969v-6.809l2.244.7782 7.561-5.2397v-17.62572l-4.837-3.89088-4.968 4.15027v-2.20483l-.959-.80411v3.50179l-.805.55769v-3.68337l-4.085-3.1127-4.838 4.75984c.389-.25939.817-.36315 1.232-.36315.351 0 .675.05188.999.15564.726.25939 1.193.72629 1.427 1.3618zm17.483 20.23252 4.967 3.4759 8.69-6.0438v-11.7245l-.882.1556-4.202-3.4759-7.886 5.4473v11.4781zm22.956-16.9901c-.515-.2546-1.01-.5495-1.479-.882l-6.484 4.5653v7.7559l.557.4798h3.891l-5.058 8.7545c.558-.4799 1.038-.843 1.401-1.0765.715-.4578 1.55-.6926 2.399-.6744.83 0 1.505.1038 2.036.2983.532.1946 1.077.5577 1.634 1.0635l6.394-5.0322v-7.8985l-.479-.4798h-4.28v-.3891l3.8-6.6794c-.389.2335-.727.3891-.96.4151-.383.0507-.768.0723-1.154.0648h-.843c-.519 0-.999-.0908-1.401-.2853zm5.447 3.1127h2.335v13.8774l-.558 1.0765h1.362l2.879 2.2438 3.8-4.28h-1.634l-1.077-1.1673v-11.4781l2.335-2.9181h-2.335v-7.65207l-4.759 4.4356v3.03487zm-177.4498.3631 3.1127 2.3346v9.3381l-.9986 1.0764-2.1271-1.8416v-10.8945zm77.4288 16.4066c.648.4539.959 1.0375.959 1.7249 0 .3243-.026.5577-.077.7133-.156.2335-.286.3891-.364.4799-.217.218-.499.3591-.804.4021-.35.0519-.804-.1297-1.361-.4929-.558-.3631-1.401-.5836-2.517-.5836-.726 0-1.374.0648-1.945.1945-.639.1542-1.258.385-1.842.6874l5.837-7.1981v.9079c-.01.4452.038.8899.142 1.3229.091.3502.299.6744.623.9986l1.362.8431zm-5.162-16.8864 3.035 2.2437v9.0398l-.882.9597-2.153-2.1659zm-120.6823 7.0035v-5.8363l2.9182 3.6834zm68.5183-6.6145-2.594 4.8377h-2.036v-5.2397c.804.5188 1.66.7782 2.594.7782.752 0 1.465-.1297 2.166-.3632zm76.287-.3242 3.113 2.3605v9.3381l-.999 1.0764-2.127-1.8805v-10.8945zm-80.411 8.0801h2.918v5.1619c-.41-.1441-.831-.2569-1.258-.3373-.578-.0476-1.158-.0649-1.738-.0518-.51-.008-1.02.0442-1.518.1556-.428.1038-.933.2853-1.517.5188zm120.682-10.8945.804-.6744v22.8265l-.804-.4799zm1.764-1.297 2.438-1.55631 1.764 1.29701v15.0447l-1.362-.7782-.882-.2853c-.654-.1555-1.307-.3155-1.958-.4799v-13.229zm-213.7392 1.7639c.2594 0 .4799-.0259.6485-.0778v14.6297c-1.0077.5006-2.1172.7624-3.2424.7652-.6485 0-1.3359-.0778-1.9973-.2335-.66147-.1556-1.19322-.389-1.55637-.6484l4.56527-4.5653v-9.9866c.1905.1084.4037.1706.6226.1816l.4669.0129zm229.6522 2.7236 3.113 2.3345v9.3382l-.96 1.0764-2.166-1.8417zm-180.9773-3.7352 1.4785-1.1673 3.0738 3.1127v14.3574l-1.2451 1.2969-3.3202-3.2035v-14.3962zm199.2903 3.8001c.351-.0519.675-.1297.999-.2854l-2.594 4.8377h-2.036v-5.2397c.792.5 1.709.7653 2.646.7652.373.0022.746-.0238 1.115-.0778zm-2.983 7.4834h2.919v5.1619c-.409-.1478-.83-.2606-1.259-.3372-.285-.0389-.856-.0648-1.737-.0648-.511-.0093-1.02.043-1.518.1556-.506.1339-1 .3074-1.478.5188zm-185.802-11.2835 1.4267-1.1673 3.1127 3.1127v14.3574l-1.297 1.2969-3.2813-3.2035z" clip-rule="evenodd"></path></svg>